<svg width="19" height="18" viewBox="0 0 19 18" fill="none" xmlns="http://www.w3.org/2000/svg">
<path fill-rule="evenodd" clip-rule="evenodd" d="M0.0719295 13.7381L1.12769 8.81562L0.0719312 3.89319C-0.0544565 3.3057 -0.0137503 2.69456 0.189436 2.12903C0.392622 1.56349 0.750164 1.06619 1.22154 0.693467C1.69291 0.320749 2.25927 0.0875254 2.85641 0.0202288C3.45356 -0.0470673 4.05761 0.0542554 4.60012 0.312713L16.512 5.97721C17.0485 6.23258 17.5017 6.63477 17.819 7.13716C18.1364 7.63955 18.3049 8.22158 18.305 8.8158C18.3051 9.41002 18.1368 9.9921 17.8196 10.4946C17.5024 10.9971 17.0494 11.3994 16.5129 11.655L4.59917 17.3176C4.05679 17.5757 3.45296 17.6768 2.85608 17.6094C2.25921 17.542 1.69312 17.3088 1.22194 16.9363C0.750757 16.5637 0.393302 16.0667 0.190055 15.5015C-0.0131929 14.9362 -0.0541125 14.3254 0.0719295 13.7381ZM3.7358 15.5008L15.6467 9.83916C15.8409 9.74776 16.0051 9.60299 16.1202 9.42175C16.2352 9.2405 16.2963 9.03028 16.2963 8.81562C16.2963 8.60096 16.2352 8.39074 16.1202 8.2095C16.0051 8.02826 15.8409 7.88348 15.6467 7.79209L3.7377 2.13043C3.5344 2.03318 3.30793 1.99482 3.08395 2.0197C2.85997 2.04458 2.64744 2.13171 2.47045 2.27122C2.29346 2.41072 2.15909 2.59701 2.08256 2.80898C2.00604 3.02095 1.99043 3.25012 2.03749 3.4705L2.9672 7.8101L9.18327 7.80915C9.31673 7.80689 9.4493 7.83124 9.57324 7.88076C9.69719 7.93029 9.81003 8.004 9.90519 8.09761C10.0003 8.19121 10.0759 8.30283 10.1275 8.42594C10.179 8.54906 10.2055 8.68121 10.2055 8.81468C10.2054 8.94816 10.1788 9.08028 10.1271 9.20335C10.0754 9.32642 9.99975 9.43796 9.90451 9.53148C9.80927 9.62499 9.69636 9.6986 9.57236 9.74801C9.44837 9.79741 9.31578 9.82164 9.18233 9.81925L2.96626 9.8202L2.03749 14.1588C1.99023 14.3791 2.00561 14.6082 2.08188 14.8202C2.15816 15.0322 2.29227 15.2186 2.46905 15.3583C2.64582 15.498 2.85818 15.5854 3.08206 15.6106C3.30595 15.6358 3.53242 15.5977 3.7358 15.5008Z" fill="white" fill-opacity="0.9"/>
<path d="M16.4844 6.03581C17.0097 6.2859 17.4532 6.67984 17.7639 7.17174C18.0747 7.66379 18.2396 8.23391 18.2397 8.8159C18.2398 9.39779 18.0758 9.96797 17.7653 10.4601C17.4547 10.9522 17.0105 11.3464 16.485 11.5967L4.57195 17.2591C4.04054 17.5119 3.44837 17.6109 2.86357 17.5449C2.27873 17.4789 1.72391 17.2505 1.26222 16.8855C0.800546 16.5204 0.450446 16.0334 0.25128 15.4796C0.0521409 14.9257 0.0118093 14.3273 0.135271 13.7518L1.1911 8.82902L1.19386 8.81521L1.19041 8.80209L0.135271 3.87996C0.0114328 3.30433 0.050832 2.705 0.249899 2.15087C0.448984 1.59675 0.799688 1.10946 1.26153 0.744249C1.72341 0.379036 2.27845 0.150048 2.86357 0.084099C3.44864 0.0181641 4.04041 0.118167 4.57195 0.371361L16.4844 6.03581ZM16.175 8.17509C16.0534 7.98354 15.8796 7.83046 15.6744 7.73383L3.76541 2.07146C3.55132 1.96913 3.3121 1.92925 3.07625 1.95545C2.84062 1.98173 2.61687 2.07322 2.43061 2.21992C2.24412 2.3669 2.10244 2.5642 2.02181 2.78754C1.94132 3.01076 1.9246 3.25223 1.97416 3.48429L2.90362 7.8236L2.91467 7.8747H2.96715L9.18334 7.87332L9.18403 7.87401C9.30889 7.8719 9.43335 7.89466 9.54932 7.94099C9.66524 7.98733 9.77106 8.05646 9.86006 8.14401C9.94896 8.23153 10.0197 8.33622 10.0679 8.4513C10.116 8.56635 10.1411 8.68981 10.1411 8.81452C10.141 8.9394 10.1156 9.06328 10.0672 9.17843C10.031 9.26466 9.98257 9.3451 9.9229 9.41667L9.85937 9.48572C9.77028 9.57316 9.6639 9.64184 9.54794 9.68805C9.43206 9.73415 9.30804 9.75656 9.18334 9.75434H9.18196L2.96646 9.75503H2.91398L2.90293 9.80613L1.97416 14.1448C1.92437 14.3769 1.94075 14.6188 2.02112 14.8422C2.10149 15.0655 2.24299 15.262 2.42922 15.4091C2.61544 15.5562 2.83906 15.6484 3.07487 15.675C3.3106 15.7015 3.54916 15.6616 3.76334 15.5597L15.6744 9.89797C15.8797 9.80136 16.0534 9.64827 16.175 9.45672C16.2966 9.26511 16.3607 9.04215 16.3607 8.81521C16.3607 8.58853 16.2964 8.36651 16.175 8.17509Z" stroke="url(#paint0_linear_435_1749)" stroke-opacity="0.8" stroke-width="0.129402"/>
<defs>
<linearGradient id="paint0_linear_435_1749" x1="5.46066" y1="0.248567" x2="9.69187" y2="19.0167" gradientUnits="userSpaceOnUse">
<stop stop-color="white"/>
<stop offset="1" stop-color="white" stop-opacity="0"/>
</linearGradient>
</defs>
</svg>
