<svg width="10" height="10" viewBox="0 0 10 10" fill="none" xmlns="http://www.w3.org/2000/svg">
<path d="M8.35352 4.99658C8.35352 5.07959 8.33968 5.1543 8.31201 5.2207C8.28158 5.28711 8.23454 5.35075 8.1709 5.41162L3.96655 9.47485C3.86418 9.57723 3.73828 9.62842 3.58887 9.62842C3.48926 9.62842 3.39933 9.60351 3.31909 9.55371C3.23608 9.50667 3.17106 9.44303 3.12402 9.36279C3.07422 9.28255 3.04932 9.19263 3.04932 9.09302C3.04932 8.94637 3.10327 8.81771 3.21118 8.70703L7.06274 4.99658L3.21118 1.29028C3.10327 1.17961 3.04932 1.05094 3.04932 0.904297C3.04932 0.801921 3.07422 0.710612 3.12402 0.630371C3.17106 0.547363 3.23608 0.482341 3.31909 0.435303C3.39933 0.388265 3.48926 0.364746 3.58887 0.364746C3.73828 0.364746 3.86418 0.415934 3.96655 0.518311L8.1709 4.58154C8.23454 4.64242 8.28158 4.70605 8.31201 4.77246C8.33968 4.84163 8.35352 4.91634 8.35352 4.99658Z" fill="#E6E6E6" style="mix-blend-mode:plus-lighter"/>
</svg>
