<svg width="164" height="32" viewBox="0 0 164 32" fill="none" xmlns="http://www.w3.org/2000/svg">
<rect width="164" height="32" rx="16" fill="#2F2C2D" fill-opacity="0.9"/>
<rect x="0.340708" y="0.340708" width="163.319" height="31.3186" rx="15.6593" stroke="#787880" stroke-opacity="0.16" stroke-width="0.681416"/>
<path fill-rule="evenodd" clip-rule="evenodd" d="M19.5 15V11.5C19.5 11.1022 19.342 10.7206 19.0607 10.4393C18.7794 10.158 18.3978 10 18 10C17.6022 10 17.2206 10.158 16.9393 10.4393C16.658 10.7206 16.5 11.1022 16.5 11.5V15C16.5 15.3978 16.658 15.7794 16.9393 16.0607C17.2206 16.342 17.6022 16.5 18 16.5C18.3978 16.5 18.7794 16.342 19.0607 16.0607C19.342 15.7794 19.5 15.3978 19.5 15ZM18 8.5C17.2044 8.5 16.4413 8.81607 15.8787 9.37868C15.3161 9.94129 15 10.7044 15 11.5V15C15 15.7956 15.3161 16.5587 15.8787 17.1213C16.4413 17.6839 17.2044 18 18 18C18.7956 18 19.5587 17.6839 20.1213 17.1213C20.6839 16.5587 21 15.7956 21 15V11.5C21 10.7044 20.6839 9.94129 20.1213 9.37868C19.5587 8.81607 18.7956 8.5 18 8.5ZM18.75 20.954C20.2001 20.7713 21.5337 20.0656 22.5003 18.9693C23.467 17.873 24.0003 16.4616 24 15V14.75C24 14.5511 23.921 14.3603 23.7803 14.2197C23.6397 14.079 23.4489 14 23.25 14C23.0511 14 22.8603 14.079 22.7197 14.2197C22.579 14.3603 22.5 14.5511 22.5 14.75V15C22.5 16.1935 22.0259 17.3381 21.182 18.182C20.3381 19.0259 19.1935 19.5 18 19.5C16.8065 19.5 15.6619 19.0259 14.818 18.182C13.9741 17.3381 13.5 16.1935 13.5 15V14.75C13.5 14.5511 13.421 14.3603 13.2803 14.2197C13.1397 14.079 12.9489 14 12.75 14C12.5511 14 12.3603 14.079 12.2197 14.2197C12.079 14.3603 12 14.5511 12 14.75V15C12 18.06 14.29 20.585 17.25 20.954V22.75C17.25 22.9489 17.329 23.1397 17.4697 23.2803C17.6103 23.421 17.8011 23.5 18 23.5C18.1989 23.5 18.3897 23.421 18.5303 23.2803C18.671 23.1397 18.75 22.9489 18.75 22.75V20.954Z" fill="#E6E6E6"/>
<path d="M33.472 11.64H30.048C29.984 11.64 29.9573 11.6027 29.968 11.528L30.128 10.52C30.1387 10.456 30.1813 10.424 30.256 10.424H38.08C38.1547 10.424 38.1973 10.4613 38.208 10.536L38.32 11.528C38.3307 11.6027 38.304 11.64 38.24 11.64H34.816V20.872C34.816 20.9573 34.7787 21 34.704 21H33.6C33.5147 21 33.472 20.9627 33.472 20.888V11.64ZM42.1206 17.288C42.0033 17.2667 41.8593 17.2507 41.6886 17.24C41.518 17.2293 41.31 17.224 41.0646 17.224C40.286 17.224 39.7046 17.352 39.3206 17.608C38.9473 17.8533 38.7606 18.2 38.7606 18.648C38.7606 18.8293 38.7926 19.0053 38.8566 19.176C38.9206 19.3467 39.0273 19.5013 39.1766 19.64C39.3366 19.768 39.534 19.8747 39.7686 19.96C40.014 20.0347 40.3126 20.072 40.6646 20.072C41.198 20.072 41.6833 19.9813 42.1206 19.8V17.288ZM43.4166 19.64C43.4166 19.7787 43.4166 19.912 43.4166 20.04C43.4166 20.1573 43.4273 20.28 43.4486 20.408C43.4486 20.44 43.438 20.4613 43.4166 20.472C42.8406 20.7493 42.3126 20.9307 41.8326 21.016C41.3633 21.112 40.894 21.16 40.4246 21.16C39.998 21.16 39.6033 21.1067 39.2406 21C38.878 20.8933 38.5633 20.7387 38.2966 20.536C38.03 20.3227 37.822 20.0613 37.6726 19.752C37.5233 19.432 37.4486 19.064 37.4486 18.648C37.4486 18.2213 37.5393 17.8587 37.7206 17.56C37.9126 17.2507 38.1686 16.9947 38.4886 16.792C38.8086 16.5893 39.182 16.44 39.6086 16.344C40.046 16.248 40.5153 16.2 41.0166 16.2C41.3153 16.2 41.55 16.2053 41.7206 16.216C41.902 16.216 42.0353 16.2213 42.1206 16.232V15.848C42.1206 15.72 42.0993 15.5653 42.0566 15.384C42.014 15.2027 41.9286 15.032 41.8006 14.872C41.6726 14.7013 41.4913 14.5573 41.2566 14.44C41.022 14.312 40.7073 14.248 40.3126 14.248C39.9286 14.248 39.5606 14.2907 39.2086 14.376C38.8673 14.4613 38.558 14.5787 38.2806 14.728C38.206 14.7493 38.1686 14.7227 38.1686 14.648V13.672C38.1686 13.6187 38.1953 13.576 38.2486 13.544C38.558 13.3947 38.9046 13.2773 39.2886 13.192C39.6833 13.1067 40.094 13.064 40.5206 13.064C41.0326 13.064 41.47 13.144 41.8326 13.304C42.206 13.464 42.5046 13.6827 42.7286 13.96C42.9633 14.2267 43.134 14.5413 43.2406 14.904C43.358 15.2667 43.4166 15.656 43.4166 16.072V19.64ZM45.494 9.624C45.494 9.56 45.5314 9.528 45.606 9.528H46.726C46.79 9.528 46.822 9.56 46.822 9.624V19.272C46.822 19.5813 46.8807 19.7893 46.998 19.896C47.1154 19.992 47.27 20.04 47.462 20.04C47.5154 20.04 47.5634 20.04 47.606 20.04C47.6487 20.0293 47.7074 20.0133 47.782 19.992C47.8247 19.992 47.846 20.024 47.846 20.088V20.92C47.846 20.984 47.8194 21.0267 47.766 21.048C47.5954 21.1227 47.35 21.16 47.03 21.16C46.838 21.16 46.646 21.1387 46.454 21.096C46.2727 21.0533 46.1074 20.968 45.958 20.84C45.8194 20.712 45.7074 20.5307 45.622 20.296C45.5367 20.0613 45.494 19.7573 45.494 19.384V9.624ZM55.3407 13.224C55.3834 13.224 55.41 13.24 55.4207 13.272C55.4314 13.2933 55.4207 13.32 55.3887 13.352C55.314 13.4373 55.1914 13.5653 55.0207 13.736C54.85 13.9067 54.6527 14.104 54.4287 14.328C54.2047 14.552 53.9647 14.7867 53.7087 15.032C53.4634 15.2773 53.2234 15.512 52.9887 15.736C52.7647 15.96 52.5567 16.1627 52.3647 16.344C52.1727 16.5253 52.0287 16.664 51.9327 16.76C51.9327 16.76 51.9327 16.7813 51.9327 16.824C52.1887 17.1013 52.482 17.416 52.8127 17.768C53.154 18.1093 53.5007 18.4667 53.8527 18.84C54.2154 19.2027 54.5727 19.5653 54.9247 19.928C55.2767 20.28 55.5967 20.6 55.8847 20.888C55.906 20.9093 55.9114 20.936 55.9007 20.968C55.89 20.9893 55.8634 21 55.8207 21H54.3007C54.2474 21 54.194 20.9733 54.1407 20.92C53.9274 20.7067 53.6554 20.4293 53.3247 20.088C52.994 19.7467 52.6527 19.3947 52.3007 19.032C51.9487 18.6587 51.6127 18.3013 51.2927 17.96C50.9727 17.6187 50.7167 17.3413 50.5247 17.128V20.888C50.5247 20.9627 50.4927 21 50.4287 21H49.3087C49.234 21 49.1967 20.9627 49.1967 20.888V9.624C49.1967 9.56 49.234 9.528 49.3087 9.528H50.4287C50.4927 9.528 50.5247 9.56 50.5247 9.624V16.792C50.7167 16.6 50.978 16.3333 51.3087 15.992C51.65 15.6507 51.9914 15.2987 52.3327 14.936C52.6847 14.5733 53.0047 14.2427 53.2927 13.944C53.5914 13.6347 53.794 13.4213 53.9007 13.304C53.954 13.2507 54.0074 13.224 54.0607 13.224H55.3407ZM63.3679 20.776C63.3679 20.8613 63.3359 20.9147 63.2719 20.936C62.9305 21.0853 62.5305 21.16 62.0719 21.16C61.4852 21.16 61.0265 21.0053 60.6959 20.696C60.3652 20.376 60.1999 19.832 60.1999 19.064V14.376H59.1119C59.0372 14.3653 58.9999 14.3227 58.9999 14.248V13.336C58.9999 13.2613 59.0372 13.224 59.1119 13.224H60.1999C60.1999 13.0747 60.2052 12.904 60.2159 12.712C60.2265 12.5093 60.2372 12.312 60.2479 12.12C60.2692 11.9173 60.2852 11.7307 60.2959 11.56C60.3065 11.3893 60.3225 11.2613 60.3439 11.176C60.3545 11.112 60.3919 11.0747 60.4559 11.064L61.5439 10.888C61.6079 10.8773 61.6399 10.8987 61.6399 10.952C61.6185 11.2293 61.5972 11.5813 61.5759 12.008C61.5545 12.424 61.5439 12.8293 61.5439 13.224H63.2399C63.3039 13.224 63.3359 13.2613 63.3359 13.336V14.28C63.3359 14.344 63.3039 14.376 63.2399 14.376H61.5439V18.872C61.5439 19.2453 61.6185 19.5333 61.7679 19.736C61.9172 19.928 62.1679 20.024 62.5199 20.024C62.7759 20.024 63.0265 19.9813 63.2719 19.896C63.3359 19.8747 63.3679 19.896 63.3679 19.96V20.776ZM67.6746 13.064C68.24 13.064 68.7466 13.1653 69.1946 13.368C69.6426 13.5707 70.0213 13.8533 70.3306 14.216C70.6506 14.5787 70.896 15.0053 71.0666 15.496C71.2373 15.9867 71.3226 16.52 71.3226 17.096C71.3226 17.704 71.232 18.2587 71.0506 18.76C70.8693 19.2613 70.6186 19.688 70.2986 20.04C69.9786 20.392 69.5946 20.6693 69.1466 20.872C68.6986 21.064 68.208 21.16 67.6746 21.16C67.0346 21.16 66.48 21.0427 66.0106 20.808C65.552 20.5733 65.1733 20.264 64.8746 19.88C64.576 19.496 64.352 19.064 64.2026 18.584C64.064 18.0933 63.9946 17.6027 63.9946 17.112C63.9946 16.5467 64.08 16.0187 64.2506 15.528C64.4213 15.0373 64.6666 14.6107 64.9866 14.248C65.3066 13.8747 65.6906 13.5867 66.1386 13.384C66.5973 13.1707 67.1093 13.064 67.6746 13.064ZM67.6106 14.216C67.2693 14.216 66.96 14.2853 66.6826 14.424C66.4053 14.5627 66.1653 14.76 65.9626 15.016C65.7706 15.2613 65.616 15.56 65.4986 15.912C65.392 16.264 65.3386 16.6533 65.3386 17.08C65.3386 17.4853 65.392 17.8693 65.4986 18.232C65.6053 18.584 65.7546 18.8933 65.9466 19.16C66.1493 19.4267 66.3946 19.6347 66.6826 19.784C66.9813 19.9333 67.3226 20.008 67.7066 20.008C67.9946 20.008 68.272 19.9547 68.5386 19.848C68.8053 19.7307 69.0453 19.5547 69.2586 19.32C69.472 19.0747 69.6426 18.776 69.7706 18.424C69.8986 18.0613 69.9626 17.6293 69.9626 17.128C69.9626 16.7547 69.9146 16.3973 69.8186 16.056C69.7333 15.704 69.5946 15.3947 69.4026 15.128C69.2213 14.8507 68.9813 14.632 68.6826 14.472C68.384 14.3013 68.0266 14.216 67.6106 14.216ZM84.0938 10.424C84.1472 10.424 84.1792 10.44 84.1898 10.472C84.2005 10.504 84.1952 10.536 84.1738 10.568L79.4858 15.48C79.4538 15.512 79.4538 15.5493 79.4858 15.592L84.5418 20.856C84.5632 20.888 84.5685 20.92 84.5578 20.952C84.5472 20.984 84.5205 21 84.4778 21H83.0698C82.9952 21 82.9258 20.968 82.8618 20.904L77.9498 15.8C77.8645 15.7147 77.8645 15.6347 77.9498 15.56L82.6698 10.504C82.7232 10.4507 82.7765 10.424 82.8298 10.424H84.0938ZM77.8698 20.888C77.8698 20.9627 77.8378 21 77.7738 21H76.6538C76.5792 21 76.5418 20.9573 76.5418 20.872V10.52C76.5418 10.456 76.5738 10.424 76.6378 10.424H77.7738C77.8378 10.424 77.8698 10.4613 77.8698 10.536V20.888ZM85.5376 13.336C85.5376 13.2613 85.5749 13.224 85.6496 13.224H86.7856C86.8496 13.224 86.8816 13.256 86.8816 13.32V20.888C86.8816 20.9627 86.8443 21 86.7696 21H85.6656C85.5803 21 85.5376 20.9573 85.5376 20.872V13.336ZM86.2096 11.688C85.9643 11.688 85.7669 11.6133 85.6176 11.464C85.4789 11.3147 85.4096 11.1173 85.4096 10.872C85.4096 10.6267 85.4843 10.4293 85.6336 10.28C85.7829 10.1307 85.9803 10.056 86.2256 10.056C86.4816 10.056 86.6789 10.136 86.8176 10.296C86.9563 10.4453 87.0256 10.6373 87.0256 10.872C87.0256 11.1173 86.9509 11.3147 86.8016 11.464C86.6523 11.6133 86.4549 11.688 86.2096 11.688ZM89.0706 21C89.0066 21 88.9746 20.9627 88.9746 20.888V14.904C88.9746 14.552 88.9693 14.2373 88.9586 13.96C88.948 13.6827 88.932 13.4693 88.9106 13.32C88.9106 13.256 88.9426 13.224 89.0066 13.224H90.0146C90.068 13.224 90.1106 13.2507 90.1426 13.304C90.164 13.3893 90.18 13.5067 90.1906 13.656C90.212 13.8053 90.228 13.944 90.2386 14.072C90.9533 13.4 91.7533 13.064 92.6386 13.064C93.62 13.064 94.3293 13.4533 94.7666 14.232C95.108 13.9013 95.492 13.624 95.9186 13.4C96.3453 13.176 96.852 13.064 97.4386 13.064C97.7373 13.064 98.036 13.112 98.3346 13.208C98.644 13.2933 98.9213 13.4533 99.1666 13.688C99.4226 13.912 99.6306 14.2213 99.7906 14.616C99.9506 15.0107 100.031 15.512 100.031 16.12V20.904C100.031 20.968 99.9933 21 99.9186 21H98.8146C98.74 21 98.7026 20.9627 98.7026 20.888V16.216C98.7026 15.672 98.5693 15.208 98.3026 14.824C98.0466 14.44 97.636 14.248 97.0706 14.248C96.6653 14.248 96.2973 14.3333 95.9666 14.504C95.6466 14.664 95.3586 14.888 95.1026 15.176C95.124 15.272 95.14 15.4213 95.1506 15.624C95.172 15.816 95.1826 16.008 95.1826 16.2V20.888C95.1826 20.9627 95.1453 21 95.0706 21H93.9506C93.876 21 93.8386 20.9627 93.8386 20.888V16.168C93.8386 15.56 93.7 15.0907 93.4226 14.76C93.156 14.4187 92.7613 14.248 92.2386 14.248C91.8653 14.248 91.524 14.3227 91.2146 14.472C90.916 14.6107 90.612 14.8347 90.3026 15.144V20.904C90.3026 20.968 90.2706 21 90.2066 21H89.0706ZM102.13 13.336C102.13 13.2613 102.168 13.224 102.242 13.224H103.378C103.442 13.224 103.474 13.256 103.474 13.32V20.888C103.474 20.9627 103.437 21 103.362 21H102.258C102.173 21 102.13 20.9573 102.13 20.872V13.336ZM102.802 11.688C102.557 11.688 102.36 11.6133 102.21 11.464C102.072 11.3147 102.002 11.1173 102.002 10.872C102.002 10.6267 102.077 10.4293 102.226 10.28C102.376 10.1307 102.573 10.056 102.818 10.056C103.074 10.056 103.272 10.136 103.41 10.296C103.549 10.4453 103.618 10.6373 103.618 10.872C103.618 11.1173 103.544 11.3147 103.394 11.464C103.245 11.6133 103.048 11.688 102.802 11.688ZM109.114 13.336C109.114 13.2613 109.151 13.224 109.226 13.224H110.362C110.426 13.224 110.458 13.256 110.458 13.32V20.888C110.458 20.9627 110.42 21 110.346 21H109.242C109.156 21 109.114 20.9573 109.114 20.872V13.336ZM109.786 11.688C109.54 11.688 109.343 11.6133 109.194 11.464C109.055 11.3147 108.986 11.1173 108.986 10.872C108.986 10.6267 109.06 10.4293 109.21 10.28C109.359 10.1307 109.556 10.056 109.802 10.056C110.058 10.056 110.255 10.136 110.394 10.296C110.532 10.4453 110.602 10.6373 110.602 10.872C110.602 11.1173 110.527 11.3147 110.378 11.464C110.228 11.6133 110.031 11.688 109.786 11.688ZM112.551 15.032C112.551 14.8933 112.546 14.7387 112.535 14.568C112.535 14.3973 112.53 14.232 112.519 14.072C112.519 13.912 112.514 13.7627 112.503 13.624C112.503 13.4853 112.498 13.384 112.487 13.32C112.487 13.256 112.519 13.224 112.583 13.224H113.575C113.639 13.224 113.687 13.256 113.719 13.32C113.74 13.3947 113.756 13.5013 113.767 13.64C113.778 13.7787 113.794 13.9387 113.815 14.12C114.519 13.416 115.335 13.064 116.263 13.064C116.551 13.064 116.844 13.1067 117.143 13.192C117.452 13.2773 117.735 13.4373 117.991 13.672C118.247 13.896 118.455 14.2107 118.615 14.616C118.786 15.0107 118.871 15.5227 118.871 16.152V20.888C118.871 20.9627 118.834 21 118.759 21H117.639C117.564 21 117.527 20.9573 117.527 20.872V16.28C117.527 15.672 117.394 15.1813 117.127 14.808C116.86 14.4347 116.444 14.248 115.879 14.248C115.474 14.248 115.1 14.3333 114.759 14.504C114.428 14.6747 114.135 14.9147 113.879 15.224V20.888C113.879 20.9627 113.847 21 113.783 21H112.647C112.583 21 112.551 20.9627 112.551 20.888V15.032ZM124.987 14.632C124.763 14.4933 124.48 14.3813 124.139 14.296C123.808 14.2107 123.472 14.168 123.131 14.168C122.864 14.168 122.64 14.2 122.459 14.264C122.288 14.3173 122.144 14.392 122.027 14.488C121.92 14.584 121.84 14.6907 121.787 14.808C121.744 14.9253 121.723 15.0427 121.723 15.16C121.723 15.2773 121.744 15.3893 121.787 15.496C121.829 15.6027 121.904 15.7093 122.011 15.816C122.128 15.912 122.283 16.0133 122.475 16.12C122.667 16.2267 122.912 16.3387 123.211 16.456C124.021 16.7653 124.603 17.1067 124.955 17.48C125.307 17.8427 125.483 18.3067 125.483 18.872C125.483 19.2453 125.408 19.576 125.259 19.864C125.12 20.1413 124.923 20.376 124.667 20.568C124.421 20.76 124.123 20.904 123.771 21C123.419 21.1067 123.035 21.16 122.619 21.16C122.171 21.16 121.76 21.1173 121.387 21.032C121.013 20.9467 120.709 20.8347 120.475 20.696C120.421 20.664 120.395 20.616 120.395 20.552V19.48C120.395 19.384 120.427 19.3573 120.491 19.4C120.811 19.624 121.163 19.7893 121.547 19.896C121.931 19.992 122.299 20.04 122.651 20.04C123.163 20.04 123.541 19.944 123.787 19.752C124.043 19.5493 124.171 19.2987 124.171 19C124.171 18.7013 124.064 18.4507 123.851 18.248C123.648 18.0453 123.269 17.8373 122.715 17.624C121.915 17.3147 121.333 16.984 120.971 16.632C120.619 16.2693 120.443 15.8 120.443 15.224C120.443 14.936 120.501 14.664 120.619 14.408C120.736 14.1413 120.912 13.912 121.147 13.72C121.381 13.5173 121.664 13.3573 121.995 13.24C122.336 13.1227 122.725 13.064 123.163 13.064C123.611 13.064 123.989 13.1013 124.299 13.176C124.619 13.24 124.864 13.32 125.035 13.416C125.088 13.4373 125.115 13.4907 125.115 13.576V14.552C125.115 14.6587 125.072 14.6853 124.987 14.632ZM130.394 20.776C130.394 20.8613 130.362 20.9147 130.298 20.936C129.957 21.0853 129.557 21.16 129.098 21.16C128.511 21.16 128.053 21.0053 127.722 20.696C127.391 20.376 127.226 19.832 127.226 19.064V14.376H126.138C126.063 14.3653 126.026 14.3227 126.026 14.248V13.336C126.026 13.2613 126.063 13.224 126.138 13.224H127.226C127.226 13.0747 127.231 12.904 127.242 12.712C127.253 12.5093 127.263 12.312 127.274 12.12C127.295 11.9173 127.311 11.7307 127.322 11.56C127.333 11.3893 127.349 11.2613 127.37 11.176C127.381 11.112 127.418 11.0747 127.482 11.064L128.57 10.888C128.634 10.8773 128.666 10.8987 128.666 10.952C128.645 11.2293 128.623 11.5813 128.602 12.008C128.581 12.424 128.57 12.8293 128.57 13.224H130.266C130.33 13.224 130.362 13.2613 130.362 13.336V14.28C130.362 14.344 130.33 14.376 130.266 14.376H128.57V18.872C128.57 19.2453 128.645 19.5333 128.794 19.736C128.943 19.928 129.194 20.024 129.546 20.024C129.802 20.024 130.053 19.9813 130.298 19.896C130.362 19.8747 130.394 19.896 130.394 19.96V20.776ZM132.365 17.272C132.365 17.656 132.418 18.0133 132.525 18.344C132.631 18.6747 132.797 18.9627 133.021 19.208C133.245 19.4533 133.522 19.6453 133.853 19.784C134.194 19.9227 134.589 19.992 135.037 19.992C135.389 19.992 135.73 19.96 136.061 19.896C136.402 19.8213 136.727 19.7093 137.037 19.56C137.09 19.528 137.117 19.5493 137.117 19.624V20.536C137.117 20.6107 137.09 20.664 137.037 20.696C136.759 20.8347 136.439 20.9467 136.077 21.032C135.725 21.1173 135.293 21.16 134.781 21.16C134.087 21.16 133.501 21.048 133.021 20.824C132.541 20.5893 132.151 20.2853 131.853 19.912C131.565 19.528 131.351 19.1013 131.213 18.632C131.085 18.152 131.021 17.6667 131.021 17.176C131.021 16.6213 131.101 16.0933 131.261 15.592C131.421 15.0907 131.65 14.6533 131.949 14.28C132.258 13.9067 132.631 13.6133 133.069 13.4C133.506 13.176 134.002 13.064 134.557 13.064C135.133 13.064 135.618 13.1707 136.013 13.384C136.407 13.5867 136.727 13.848 136.973 14.168C137.218 14.4773 137.394 14.824 137.501 15.208C137.618 15.5813 137.677 15.9387 137.677 16.28C137.677 16.4827 137.671 16.6533 137.661 16.792C137.65 16.9307 137.634 17.0373 137.613 17.112C137.613 17.176 137.575 17.208 137.501 17.208C137.383 17.2293 137.165 17.2453 136.845 17.256C136.535 17.2667 136.205 17.272 135.853 17.272H132.365ZM135.357 16.28C135.751 16.28 136.013 16.28 136.141 16.28C136.279 16.2693 136.359 16.2587 136.381 16.248C136.391 16.2267 136.397 16.2 136.397 16.168C136.397 16.1253 136.397 16.0933 136.397 16.072C136.397 15.9333 136.37 15.7573 136.317 15.544C136.263 15.32 136.162 15.1067 136.013 14.904C135.874 14.7013 135.682 14.5307 135.437 14.392C135.191 14.2427 134.882 14.168 134.509 14.168C134.178 14.168 133.885 14.2267 133.629 14.344C133.383 14.4613 133.17 14.6213 132.989 14.824C132.818 15.016 132.679 15.24 132.573 15.496C132.477 15.752 132.413 16.0133 132.381 16.28H135.357ZM143.238 17.288C143.12 17.2667 142.976 17.2507 142.806 17.24C142.635 17.2293 142.427 17.224 142.182 17.224C141.403 17.224 140.822 17.352 140.438 17.608C140.064 17.8533 139.878 18.2 139.878 18.648C139.878 18.8293 139.91 19.0053 139.974 19.176C140.038 19.3467 140.144 19.5013 140.294 19.64C140.454 19.768 140.651 19.8747 140.886 19.96C141.131 20.0347 141.43 20.072 141.782 20.072C142.315 20.072 142.8 19.9813 143.238 19.8V17.288ZM144.534 19.64C144.534 19.7787 144.534 19.912 144.534 20.04C144.534 20.1573 144.544 20.28 144.566 20.408C144.566 20.44 144.555 20.4613 144.534 20.472C143.958 20.7493 143.43 20.9307 142.95 21.016C142.48 21.112 142.011 21.16 141.542 21.16C141.115 21.16 140.72 21.1067 140.358 21C139.995 20.8933 139.68 20.7387 139.414 20.536C139.147 20.3227 138.939 20.0613 138.79 19.752C138.64 19.432 138.566 19.064 138.566 18.648C138.566 18.2213 138.656 17.8587 138.838 17.56C139.03 17.2507 139.286 16.9947 139.606 16.792C139.926 16.5893 140.299 16.44 140.726 16.344C141.163 16.248 141.632 16.2 142.134 16.2C142.432 16.2 142.667 16.2053 142.838 16.216C143.019 16.216 143.152 16.2213 143.238 16.232V15.848C143.238 15.72 143.216 15.5653 143.174 15.384C143.131 15.2027 143.046 15.032 142.918 14.872C142.79 14.7013 142.608 14.5573 142.374 14.44C142.139 14.312 141.824 14.248 141.43 14.248C141.046 14.248 140.678 14.2907 140.326 14.376C139.984 14.4613 139.675 14.5787 139.398 14.728C139.323 14.7493 139.286 14.7227 139.286 14.648V13.672C139.286 13.6187 139.312 13.576 139.366 13.544C139.675 13.3947 140.022 13.2773 140.406 13.192C140.8 13.1067 141.211 13.064 141.638 13.064C142.15 13.064 142.587 13.144 142.95 13.304C143.323 13.464 143.622 13.6827 143.846 13.96C144.08 14.2267 144.251 14.5413 144.358 14.904C144.475 15.2667 144.534 15.656 144.534 16.072V19.64ZM149.94 21.16C149.386 21.16 148.868 21.08 148.388 20.92C147.908 20.7493 147.487 20.4987 147.124 20.168C146.772 19.8267 146.495 19.4107 146.292 18.92C146.09 18.4187 145.988 17.8373 145.988 17.176C145.988 16.5893 146.09 16.0453 146.292 15.544C146.506 15.0427 146.804 14.6107 147.188 14.248C147.572 13.8747 148.031 13.5867 148.564 13.384C149.098 13.1707 149.69 13.064 150.34 13.064C150.564 13.064 150.751 13.0747 150.9 13.096C151.05 13.1173 151.199 13.1387 151.348 13.16V9.624C151.348 9.56 151.38 9.528 151.444 9.528H152.596C152.66 9.528 152.692 9.55467 152.692 9.608V19.688C152.692 19.8053 152.692 19.928 152.692 20.056C152.692 20.184 152.703 20.3173 152.724 20.456C152.724 20.5093 152.698 20.5467 152.644 20.568C152.186 20.7813 151.732 20.9307 151.284 21.016C150.836 21.112 150.388 21.16 149.94 21.16ZM151.348 14.376C151.22 14.3227 151.066 14.2853 150.884 14.264C150.703 14.232 150.511 14.216 150.308 14.216C149.85 14.216 149.439 14.2907 149.076 14.44C148.714 14.5787 148.404 14.7813 148.148 15.048C147.892 15.304 147.695 15.608 147.556 15.96C147.418 16.312 147.348 16.696 147.348 17.112C147.348 17.6347 147.423 18.0773 147.572 18.44C147.722 18.8027 147.924 19.1013 148.18 19.336C148.436 19.56 148.724 19.7253 149.044 19.832C149.375 19.9387 149.716 19.992 150.068 19.992C150.282 19.992 150.5 19.9813 150.724 19.96C150.959 19.928 151.167 19.8693 151.348 19.784V14.376Z" fill="#E6E6E6"/>
</svg>
