<svg width="16" height="16" viewBox="0 0 16 16" fill="none" xmlns="http://www.w3.org/2000/svg">
<mask id="mask0_523_3171" style="mask-type:luminance" maskUnits="userSpaceOnUse" x="0" y="0" width="16" height="16">
<path d="M0 0H16V16H0V0Z" fill="white"/>
</mask>
<g mask="url(#mask0_523_3171)">
<path fill-rule="evenodd" clip-rule="evenodd" d="M11.995 0.667011C11.9871 0.566793 11.9591 0.469186 11.9128 0.379991C11.8664 0.290796 11.8026 0.211834 11.7251 0.147798C11.6476 0.0837622 11.558 0.0359592 11.4617 0.00723022C11.3653 -0.0214987 11.2642 -0.0305672 11.1643 -0.0194362C11.0644 -0.00830516 10.9677 0.0227981 10.8801 0.0720251C10.7924 0.121252 10.7155 0.187598 10.654 0.267119C10.5925 0.346641 10.5477 0.437715 10.5221 0.534929C10.4965 0.632142 10.4907 0.733511 10.505 0.833011L11.19 7.00001H10.323C8.683 7.00001 7.427 8.44901 7.126 10.06C6.89477 11.2588 6.49054 12.4175 5.926 13.5C5.434 14.448 5 15 5 15H13.5C13.5 15 15.58 13.266 15.988 9.51001C16.14 8.09401 14.91 7.00001 13.488 7.00001H12.7L11.995 0.667011ZM3.75 2.50001C3.55109 2.50001 3.36032 2.57903 3.21967 2.71968C3.07902 2.86033 3 3.0511 3 3.25001C3 3.44892 3.07902 3.63969 3.21967 3.78034C3.36032 3.92099 3.55109 4.00001 3.75 4.00001H8.25C8.44891 4.00001 8.63968 3.92099 8.78033 3.78034C8.92098 3.63969 9 3.44892 9 3.25001C9 3.0511 8.92098 2.86033 8.78033 2.71968C8.63968 2.57903 8.44891 2.50001 8.25 2.50001H3.75ZM0.75 6.00001C0.551088 6.00001 0.360322 6.07903 0.21967 6.21968C0.0790176 6.36033 0 6.5511 0 6.75001C0 6.94892 0.0790176 7.13969 0.21967 7.28034C0.360322 7.42099 0.551088 7.50001 0.75 7.50001H6.25C6.44891 7.50001 6.63968 7.42099 6.78033 7.28034C6.92098 7.13969 7 6.94892 7 6.75001C7 6.5511 6.92098 6.36033 6.78033 6.21968C6.63968 6.07903 6.44891 6.00001 6.25 6.00001H0.75ZM1 10.25C1 10.0511 1.07902 9.86033 1.21967 9.71968C1.36032 9.57903 1.55109 9.50001 1.75 9.50001H4.25C4.44891 9.50001 4.63968 9.57903 4.78033 9.71968C4.92098 9.86033 5 10.0511 5 10.25C5 10.4489 4.92098 10.6397 4.78033 10.7803C4.63968 10.921 4.44891 11 4.25 11H1.75C1.55109 11 1.36032 10.921 1.21967 10.7803C1.07902 10.6397 1 10.4489 1 10.25ZM7.593 13.5C7.986 12.634 8.373 11.56 8.601 10.335C8.819 9.16701 9.646 8.50001 10.322 8.50001H13.489C13.821 8.50001 14.107 8.63001 14.286 8.80301C14.3624 8.87016 14.4214 8.9548 14.458 9.0497C14.4945 9.14461 14.5076 9.24696 14.496 9.34801C14.321 10.97 13.788 12.127 13.323 12.862C13.1835 13.0845 13.0295 13.2977 12.862 13.5H11.863C12.402 12.794 12.75 11.772 12.75 10.75H12C11.649 11.979 10.928 12.838 9.838 13.5H7.593Z" fill="white"/>
</g>
</svg>
