<svg width="16" height="16" viewBox="0 0 16 16" fill="none" xmlns="http://www.w3.org/2000/svg">
<path fill-rule="evenodd" clip-rule="evenodd" d="M3.47032 3.47C3.61094 3.32955 3.80157 3.25066 4.00032 3.25066C4.19907 3.25066 4.38969 3.32955 4.53032 3.47L8.00032 6.94L11.4703 3.47C11.539 3.39631 11.6218 3.33721 11.7138 3.29622C11.8058 3.25523 11.9051 3.23319 12.0058 3.23141C12.1065 3.22963 12.2065 3.24816 12.2999 3.28588C12.3933 3.3236 12.4781 3.37974 12.5494 3.45096C12.6206 3.52218 12.6767 3.60702 12.7144 3.7004C12.7522 3.79379 12.7707 3.89382 12.7689 3.99452C12.7671 4.09523 12.7451 4.19454 12.7041 4.28654C12.6631 4.37854 12.604 4.46134 12.5303 4.53L9.06032 8L12.5303 11.47C12.604 11.5387 12.6631 11.6215 12.7041 11.7135C12.7451 11.8055 12.7671 11.9048 12.7689 12.0055C12.7707 12.1062 12.7522 12.2062 12.7144 12.2996C12.6767 12.393 12.6206 12.4778 12.5494 12.549C12.4781 12.6203 12.3933 12.6764 12.2999 12.7141C12.2065 12.7518 12.1065 12.7704 12.0058 12.7686C11.9051 12.7668 11.8058 12.7448 11.7138 12.7038C11.6218 12.6628 11.539 12.6037 11.4703 12.53L8.00032 9.06L4.53032 12.53C4.38814 12.6625 4.2001 12.7346 4.00579 12.7312C3.81149 12.7277 3.62611 12.649 3.48869 12.5116C3.35128 12.3742 3.27257 12.1888 3.26914 11.9945C3.26571 11.8002 3.33784 11.6122 3.47032 11.47L6.94032 8L3.47032 4.53C3.32987 4.38938 3.25098 4.19875 3.25098 4C3.25098 3.80125 3.32987 3.61063 3.47032 3.47Z" fill="#2F2C2D" fill-opacity="0.9"/>
</svg>
