<svg width="16" height="16" viewBox="0 0 16 16" fill="none" xmlns="http://www.w3.org/2000/svg">
<path fill-rule="evenodd" clip-rule="evenodd" d="M2.97001 5.47C3.11064 5.32955 3.30126 5.25066 3.50001 5.25066C3.69876 5.25066 3.88939 5.32955 4.03001 5.47L8.00001 9.44L11.97 5.47C12.0387 5.39631 12.1215 5.33721 12.2135 5.29622C12.3055 5.25523 12.4048 5.23319 12.5055 5.23141C12.6062 5.22963 12.7062 5.24816 12.7996 5.28588C12.893 5.3236 12.9778 5.37974 13.049 5.45096C13.1203 5.52218 13.1764 5.60701 13.2141 5.7004C13.2519 5.79379 13.2704 5.89382 13.2686 5.99452C13.2668 6.09523 13.2448 6.19454 13.2038 6.28654C13.1628 6.37854 13.1037 6.46134 13.03 6.53L8.53001 11.03C8.38939 11.1705 8.19876 11.2493 8.00001 11.2493C7.80126 11.2493 7.61064 11.1705 7.47001 11.03L2.97001 6.53C2.82956 6.38938 2.75067 6.19875 2.75067 6C2.75067 5.80125 2.82956 5.61063 2.97001 5.47Z" fill="#E6E6E6"/>
</svg>
