<svg width="163" height="171" viewBox="0 0 163 171" fill="none" xmlns="http://www.w3.org/2000/svg">
<g opacity="0.08">
<g filter="url(#filter0_f_827_7063)">
<path d="M89.8065 71.6279C89.151 70.1999 90.1944 68.5729 91.7657 68.5729L93.0804 68.5729C105.899 68.5729 116.453 78.6495 117.045 91.4541L117.079 92.1809C117.2 94.79 119.449 96.7856 122.054 96.595L132.248 95.8491C135.894 95.5823 139.071 98.311 139.358 101.956L139.88 108.596C140.054 110.811 138.304 112.704 136.082 112.704H131.321C120.037 112.704 111.964 123.612 115.262 134.403C115.687 135.793 115.105 137.293 113.855 138.033L108.435 141.241C105.125 143.2 101.04 143.315 97.6243 141.547L90.0502 137.624C89.1113 137.138 88.6845 136.026 89.0567 135.037C93.9361 122.064 81.5514 109.214 68.2997 113.276C66.8056 113.734 65.3272 112.468 65.5841 110.927L67.6505 98.5281C67.9429 96.7741 69.6085 95.582 71.367 95.8464C84.9232 97.8849 95.5253 84.0867 89.8065 71.6279Z" fill="#1715A6"/>
<path d="M89.8065 71.6279C89.151 70.1999 90.1944 68.5729 91.7657 68.5729L93.0804 68.5729C105.899 68.5729 116.453 78.6495 117.045 91.4541L117.079 92.1809C117.2 94.79 119.449 96.7856 122.054 96.595L132.248 95.8491C135.894 95.5823 139.071 98.311 139.358 101.956L139.88 108.596C140.054 110.811 138.304 112.704 136.082 112.704H131.321C120.037 112.704 111.964 123.612 115.262 134.403C115.687 135.793 115.105 137.293 113.855 138.033L108.435 141.241C105.125 143.2 101.04 143.315 97.6243 141.547L90.0502 137.624C89.1113 137.138 88.6845 136.026 89.0567 135.037C93.9361 122.064 81.5514 109.214 68.2997 113.276C66.8056 113.734 65.3272 112.468 65.5841 110.927L67.6505 98.5281C67.9429 96.7741 69.6085 95.582 71.367 95.8464C84.9232 97.8849 95.5253 84.0867 89.8065 71.6279Z" fill="url(#paint0_radial_827_7063)"/>
<path d="M89.8065 71.6279C89.151 70.1999 90.1944 68.5729 91.7657 68.5729L93.0804 68.5729C105.899 68.5729 116.453 78.6495 117.045 91.4541L117.079 92.1809C117.2 94.79 119.449 96.7856 122.054 96.595L132.248 95.8491C135.894 95.5823 139.071 98.311 139.358 101.956L139.88 108.596C140.054 110.811 138.304 112.704 136.082 112.704H131.321C120.037 112.704 111.964 123.612 115.262 134.403C115.687 135.793 115.105 137.293 113.855 138.033L108.435 141.241C105.125 143.2 101.04 143.315 97.6243 141.547L90.0502 137.624C89.1113 137.138 88.6845 136.026 89.0567 135.037C93.9361 122.064 81.5514 109.214 68.2997 113.276C66.8056 113.734 65.3272 112.468 65.5841 110.927L67.6505 98.5281C67.9429 96.7741 69.6085 95.582 71.367 95.8464C84.9232 97.8849 95.5253 84.0867 89.8065 71.6279Z" fill="url(#paint1_radial_827_7063)"/>
<path d="M89.8065 71.6279C89.151 70.1999 90.1944 68.5729 91.7657 68.5729L93.0804 68.5729C105.899 68.5729 116.453 78.6495 117.045 91.4541L117.079 92.1809C117.2 94.79 119.449 96.7856 122.054 96.595L132.248 95.8491C135.894 95.5823 139.071 98.311 139.358 101.956L139.88 108.596C140.054 110.811 138.304 112.704 136.082 112.704H131.321C120.037 112.704 111.964 123.612 115.262 134.403C115.687 135.793 115.105 137.293 113.855 138.033L108.435 141.241C105.125 143.2 101.04 143.315 97.6243 141.547L90.0502 137.624C89.1113 137.138 88.6845 136.026 89.0567 135.037C93.9361 122.064 81.5514 109.214 68.2997 113.276C66.8056 113.734 65.3272 112.468 65.5841 110.927L67.6505 98.5281C67.9429 96.7741 69.6085 95.582 71.367 95.8464C84.9232 97.8849 95.5253 84.0867 89.8065 71.6279Z" fill="url(#paint2_radial_827_7063)"/>
<path d="M89.8065 71.6279C89.151 70.1999 90.1944 68.5729 91.7657 68.5729L93.0804 68.5729C105.899 68.5729 116.453 78.6495 117.045 91.4541L117.079 92.1809C117.2 94.79 119.449 96.7856 122.054 96.595L132.248 95.8491C135.894 95.5823 139.071 98.311 139.358 101.956L139.88 108.596C140.054 110.811 138.304 112.704 136.082 112.704H131.321C120.037 112.704 111.964 123.612 115.262 134.403C115.687 135.793 115.105 137.293 113.855 138.033L108.435 141.241C105.125 143.2 101.04 143.315 97.6243 141.547L90.0502 137.624C89.1113 137.138 88.6845 136.026 89.0567 135.037C93.9361 122.064 81.5514 109.214 68.2997 113.276C66.8056 113.734 65.3272 112.468 65.5841 110.927L67.6505 98.5281C67.9429 96.7741 69.6085 95.582 71.367 95.8464C84.9232 97.8849 95.5253 84.0867 89.8065 71.6279Z" fill="url(#paint3_radial_827_7063)"/>
<path d="M89.8065 71.6279C89.151 70.1999 90.1944 68.5729 91.7657 68.5729L93.0804 68.5729C105.899 68.5729 116.453 78.6495 117.045 91.4541L117.079 92.1809C117.2 94.79 119.449 96.7856 122.054 96.595L132.248 95.8491C135.894 95.5823 139.071 98.311 139.358 101.956L139.88 108.596C140.054 110.811 138.304 112.704 136.082 112.704H131.321C120.037 112.704 111.964 123.612 115.262 134.403C115.687 135.793 115.105 137.293 113.855 138.033L108.435 141.241C105.125 143.2 101.04 143.315 97.6243 141.547L90.0502 137.624C89.1113 137.138 88.6845 136.026 89.0567 135.037C93.9361 122.064 81.5514 109.214 68.2997 113.276C66.8056 113.734 65.3272 112.468 65.5841 110.927L67.6505 98.5281C67.9429 96.7741 69.6085 95.582 71.367 95.8464C84.9232 97.8849 95.5253 84.0867 89.8065 71.6279Z" fill="url(#paint4_radial_827_7063)"/>
<path d="M89.8065 71.6279C89.151 70.1999 90.1944 68.5729 91.7657 68.5729L93.0804 68.5729C105.899 68.5729 116.453 78.6495 117.045 91.4541L117.079 92.1809C117.2 94.79 119.449 96.7856 122.054 96.595L132.248 95.8491C135.894 95.5823 139.071 98.311 139.358 101.956L139.88 108.596C140.054 110.811 138.304 112.704 136.082 112.704H131.321C120.037 112.704 111.964 123.612 115.262 134.403C115.687 135.793 115.105 137.293 113.855 138.033L108.435 141.241C105.125 143.2 101.04 143.315 97.6243 141.547L90.0502 137.624C89.1113 137.138 88.6845 136.026 89.0567 135.037C93.9361 122.064 81.5514 109.214 68.2997 113.276C66.8056 113.734 65.3272 112.468 65.5841 110.927L67.6505 98.5281C67.9429 96.7741 69.6085 95.582 71.367 95.8464C84.9232 97.8849 95.5253 84.0867 89.8065 71.6279Z" fill="url(#paint5_radial_827_7063)"/>
</g>
<g filter="url(#filter1_f_827_7063)">
<path d="M98.4516 77.7608C100.421 73.7181 106.217 73.8237 108.038 77.9353C112.238 87.4217 119.917 95.0957 129.364 99.3841C133.544 101.282 133.638 107.267 129.454 109.155L128.605 109.538C119.561 113.62 112.342 120.897 108.334 129.975L107.995 130.741C106.31 134.558 100.852 134.435 99.3411 130.546C95.6951 121.163 88.4291 113.642 79.1784 109.673L77.1015 108.782C72.9389 106.997 72.7316 101.173 76.7567 99.0955L78.8749 98.0024C87.3023 93.6536 94.0987 86.698 98.2512 78.1722L98.4516 77.7608Z" fill="#1715A6"/>
<path d="M98.4516 77.7608C100.421 73.7181 106.217 73.8237 108.038 77.9353C112.238 87.4217 119.917 95.0957 129.364 99.3841C133.544 101.282 133.638 107.267 129.454 109.155L128.605 109.538C119.561 113.62 112.342 120.897 108.334 129.975L107.995 130.741C106.31 134.558 100.852 134.435 99.3411 130.546C95.6951 121.163 88.4291 113.642 79.1784 109.673L77.1015 108.782C72.9389 106.997 72.7316 101.173 76.7567 99.0955L78.8749 98.0024C87.3023 93.6536 94.0987 86.698 98.2512 78.1722L98.4516 77.7608Z" fill="url(#paint6_radial_827_7063)"/>
<path d="M98.4516 77.7608C100.421 73.7181 106.217 73.8237 108.038 77.9353C112.238 87.4217 119.917 95.0957 129.364 99.3841C133.544 101.282 133.638 107.267 129.454 109.155L128.605 109.538C119.561 113.62 112.342 120.897 108.334 129.975L107.995 130.741C106.31 134.558 100.852 134.435 99.3411 130.546C95.6951 121.163 88.4291 113.642 79.1784 109.673L77.1015 108.782C72.9389 106.997 72.7316 101.173 76.7567 99.0955L78.8749 98.0024C87.3023 93.6536 94.0987 86.698 98.2512 78.1722L98.4516 77.7608Z" fill="url(#paint7_radial_827_7063)"/>
<path d="M98.4516 77.7608C100.421 73.7181 106.217 73.8237 108.038 77.9353C112.238 87.4217 119.917 95.0957 129.364 99.3841C133.544 101.282 133.638 107.267 129.454 109.155L128.605 109.538C119.561 113.62 112.342 120.897 108.334 129.975L107.995 130.741C106.31 134.558 100.852 134.435 99.3411 130.546C95.6951 121.163 88.4291 113.642 79.1784 109.673L77.1015 108.782C72.9389 106.997 72.7316 101.173 76.7567 99.0955L78.8749 98.0024C87.3023 93.6536 94.0987 86.698 98.2512 78.1722L98.4516 77.7608Z" fill="url(#paint8_radial_827_7063)"/>
<path d="M98.4516 77.7608C100.421 73.7181 106.217 73.8237 108.038 77.9353C112.238 87.4217 119.917 95.0957 129.364 99.3841C133.544 101.282 133.638 107.267 129.454 109.155L128.605 109.538C119.561 113.62 112.342 120.897 108.334 129.975L107.995 130.741C106.31 134.558 100.852 134.435 99.3411 130.546C95.6951 121.163 88.4291 113.642 79.1784 109.673L77.1015 108.782C72.9389 106.997 72.7316 101.173 76.7567 99.0955L78.8749 98.0024C87.3023 93.6536 94.0987 86.698 98.2512 78.1722L98.4516 77.7608Z" fill="url(#paint9_radial_827_7063)"/>
<path d="M98.4516 77.7608C100.421 73.7181 106.217 73.8237 108.038 77.9353C112.238 87.4217 119.917 95.0957 129.364 99.3841C133.544 101.282 133.638 107.267 129.454 109.155L128.605 109.538C119.561 113.62 112.342 120.897 108.334 129.975L107.995 130.741C106.31 134.558 100.852 134.435 99.3411 130.546C95.6951 121.163 88.4291 113.642 79.1784 109.673L77.1015 108.782C72.9389 106.997 72.7316 101.173 76.7567 99.0955L78.8749 98.0024C87.3023 93.6536 94.0987 86.698 98.2512 78.1722L98.4516 77.7608Z" fill="url(#paint10_radial_827_7063)"/>
<path d="M98.4516 77.7608C100.421 73.7181 106.217 73.8237 108.038 77.9353C112.238 87.4217 119.917 95.0957 129.364 99.3841C133.544 101.282 133.638 107.267 129.454 109.155L128.605 109.538C119.561 113.62 112.342 120.897 108.334 129.975L107.995 130.741C106.31 134.558 100.852 134.435 99.3411 130.546C95.6951 121.163 88.4291 113.642 79.1784 109.673L77.1015 108.782C72.9389 106.997 72.7316 101.173 76.7567 99.0955L78.8749 98.0024C87.3023 93.6536 94.0987 86.698 98.2512 78.1722L98.4516 77.7608Z" fill="url(#paint11_radial_827_7063)"/>
</g>
</g>
<g filter="url(#filter2_f_827_7063)">
<path d="M96.5313 63.1495C100.361 58.9748 106.935 58.9463 110.801 63.0877L129.096 82.6864L144.245 96.6418C148.467 100.531 148.417 107.212 144.138 111.038L126.765 126.571L110.911 144.266C107.034 148.593 100.251 148.575 96.3971 144.227L80.7447 126.571L63.2763 111.102C58.9377 107.26 58.9031 100.499 63.2022 96.6131L78.6087 82.6864L96.5313 63.1495Z" fill="#5D5CF0" fill-opacity="0.3"/>
</g>
<g filter="url(#filter3_f_827_7063)">
<path d="M95.8903 73.0207C99.8191 68.0517 107.375 68.1077 111.229 73.1343L115.94 79.2768C120.455 85.164 125.789 90.3749 131.78 94.751L133.859 96.2694C139.085 100.087 139.191 107.851 134.071 111.81L128.945 115.773C123.617 119.892 118.846 124.687 114.753 130.036L111.356 134.475C107.464 139.561 99.8034 139.56 95.9136 134.472L92.5415 130.061C88.4392 124.696 83.6554 119.887 78.3109 115.758L72.8841 111.564C67.8582 107.681 67.8457 100.1 72.8588 96.1996L77.662 92.4629C82.5907 88.6285 87.0397 84.2144 90.9127 79.316L95.8903 73.0207Z" fill="black" fill-opacity="0.8"/>
</g>
<path d="M97.3304 74.7519C100.055 69.7698 107.21 69.7698 109.935 74.7519C115.209 84.3943 123.137 92.3223 132.779 97.5959C137.761 100.321 137.761 107.476 132.779 110.201C123.137 115.474 115.209 123.402 109.935 133.045C107.21 138.027 100.055 138.027 97.3304 133.045C92.0568 123.402 84.1288 115.474 74.4864 110.201C69.5044 107.476 69.5044 100.321 74.4864 97.5959C84.1288 92.3223 92.0568 84.3943 97.3304 74.7519Z" fill="#1715A6"/>
<path d="M97.3304 74.7519C100.055 69.7698 107.21 69.7698 109.935 74.7519C115.209 84.3943 123.137 92.3223 132.779 97.5959C137.761 100.321 137.761 107.476 132.779 110.201C123.137 115.474 115.209 123.402 109.935 133.045C107.21 138.027 100.055 138.027 97.3304 133.045C92.0568 123.402 84.1288 115.474 74.4864 110.201C69.5044 107.476 69.5044 100.321 74.4864 97.5959C84.1288 92.3223 92.0568 84.3943 97.3304 74.7519Z" fill="url(#paint12_linear_827_7063)"/>
<g filter="url(#filter4_f_827_7063)">
<path d="M97.3304 74.7519C100.055 69.7698 107.21 69.7698 109.935 74.7519C115.209 84.3943 123.137 92.3223 132.779 97.5959C137.761 100.321 137.761 107.476 132.779 110.201C123.137 115.474 115.209 123.402 109.935 133.045C107.21 138.027 100.055 138.027 97.3304 133.045C92.0568 123.402 84.1288 115.474 74.4864 110.201C69.5044 107.476 69.5044 100.321 74.4864 97.5959C84.1288 92.3223 92.0568 84.3943 97.3304 74.7519Z" fill="#1715A6"/>
<path d="M97.3304 74.7519C100.055 69.7698 107.21 69.7698 109.935 74.7519C115.209 84.3943 123.137 92.3223 132.779 97.5959C137.761 100.321 137.761 107.476 132.779 110.201C123.137 115.474 115.209 123.402 109.935 133.045C107.21 138.027 100.055 138.027 97.3304 133.045C92.0568 123.402 84.1288 115.474 74.4864 110.201C69.5044 107.476 69.5044 100.321 74.4864 97.5959C84.1288 92.3223 92.0568 84.3943 97.3304 74.7519Z" fill="url(#paint13_linear_827_7063)"/>
</g>
<g filter="url(#filter5_f_827_7063)">
<path d="M97.3304 74.7519C100.055 69.7698 107.21 69.7698 109.935 74.7519C115.209 84.3943 123.137 92.3223 132.779 97.5959C137.761 100.321 137.761 107.476 132.779 110.201C123.137 115.474 115.209 123.402 109.935 133.045C107.21 138.027 100.055 138.027 97.3304 133.045C92.0568 123.402 84.1288 115.474 74.4864 110.201C69.5044 107.476 69.5044 100.321 74.4864 97.5959C84.1288 92.3223 92.0568 84.3943 97.3304 74.7519Z" fill="#1715A6"/>
<path d="M97.3304 74.7519C100.055 69.7698 107.21 69.7698 109.935 74.7519C115.209 84.3943 123.137 92.3223 132.779 97.5959C137.761 100.321 137.761 107.476 132.779 110.201C123.137 115.474 115.209 123.402 109.935 133.045C107.21 138.027 100.055 138.027 97.3304 133.045C92.0568 123.402 84.1288 115.474 74.4864 110.201C69.5044 107.476 69.5044 100.321 74.4864 97.5959C84.1288 92.3223 92.0568 84.3943 97.3304 74.7519Z" fill="url(#paint14_linear_827_7063)"/>
</g>
<mask id="mask0_827_7063" style="mask-type:alpha" maskUnits="userSpaceOnUse" x="70" y="71" width="67" height="66">
<path d="M97.3306 74.7518C100.055 69.7698 107.211 69.7698 109.935 74.7518C115.209 84.3942 123.137 92.3222 132.78 97.5958C137.762 100.321 137.762 107.476 132.78 110.201C123.137 115.474 115.209 123.402 109.935 133.045C107.211 138.027 100.055 138.027 97.3306 133.045C92.057 123.402 84.129 115.474 74.4866 110.201C69.5046 107.476 69.5046 100.321 74.4866 97.5958C84.129 92.3222 92.057 84.3942 97.3306 74.7518Z" fill="#1715A6"/>
<path d="M97.3306 74.7518C100.055 69.7698 107.211 69.7698 109.935 74.7518C115.209 84.3942 123.137 92.3222 132.78 97.5958C137.762 100.321 137.762 107.476 132.78 110.201C123.137 115.474 115.209 123.402 109.935 133.045C107.211 138.027 100.055 138.027 97.3306 133.045C92.057 123.402 84.129 115.474 74.4866 110.201C69.5046 107.476 69.5046 100.321 74.4866 97.5958C84.129 92.3222 92.057 84.3942 97.3306 74.7518Z" fill="url(#paint15_linear_827_7063)"/>
</mask>
<g mask="url(#mask0_827_7063)">
<g filter="url(#filter6_f_827_7063)">
<path d="M99.5468 71.3844C100.114 67.6255 105.061 66.616 107.056 69.8518L113.532 80.3552C118.233 87.9795 125.014 94.1018 133.078 98.0013C137.551 100.164 137.486 106.558 132.97 108.63L132.245 108.963C121.751 113.779 113.323 122.187 108.482 132.67L108.234 133.206C106.168 137.681 99.7992 137.663 97.7327 133.188C92.7712 122.443 83.8568 113.992 72.8556 109.629L71.0065 108.895C66.5071 107.111 66.8133 100.642 71.4612 99.2907L76.3808 97.8601C88.6039 94.3058 97.6465 83.9712 99.5468 71.3844Z" fill="url(#paint16_linear_827_7063)"/>
</g>
<g filter="url(#filter7_f_827_7063)">
<path d="M101.789 82.1612C102.173 79.6134 105.526 78.9291 106.878 81.1224L111.268 88.2418C114.454 93.4097 119.051 97.5595 124.516 100.203C127.548 101.669 127.505 106.003 124.444 107.407L123.952 107.633C116.839 110.897 111.126 116.596 107.845 123.702L107.677 124.065C106.277 127.098 101.96 127.086 100.559 124.053C97.1959 116.77 91.1535 111.041 83.6967 108.084L82.4434 107.587C79.3936 106.377 79.6011 101.993 82.7515 101.077L86.0862 100.107C94.3712 97.6978 100.501 90.6928 101.789 82.1612Z" fill="url(#paint17_linear_827_7063)"/>
</g>
<g filter="url(#filter8_f_827_7063)">
<path d="M102.884 136.114C100.618 124.324 94.7726 117.999 90.7168 113.64L103.123 123.452L115.529 113.64C115.529 113.64 104.912 123.587 102.884 136.114Z" fill="#D9D9D9" fill-opacity="0.5"/>
</g>
<g filter="url(#filter9_f_827_7063)">
<path d="M102.677 138.308C98.4301 120.112 87.4785 110.35 79.8794 103.621L93.092 108.772L102.677 120.532L113.406 108.772L126.368 103.621C126.368 103.621 106.476 118.975 102.677 138.308Z" fill="#D9D9D9" fill-opacity="0.3"/>
</g>
</g>
<defs>
<filter id="filter0_f_827_7063" x="1.55487" y="4.57288" width="202.337" height="202.223" filterUnits="userSpaceOnUse" color-interpolation-filters="sRGB">
<feFlood flood-opacity="0" result="BackgroundImageFix"/>
<feBlend mode="normal" in="SourceGraphic" in2="BackgroundImageFix" result="shape"/>
<feGaussianBlur stdDeviation="32" result="effect1_foregroundBlur_827_7063"/>
</filter>
<filter id="filter1_f_827_7063" x="9.85519" y="10.7893" width="186.691" height="186.745" filterUnits="userSpaceOnUse" color-interpolation-filters="sRGB">
<feFlood flood-opacity="0" result="BackgroundImageFix"/>
<feBlend mode="normal" in="SourceGraphic" in2="BackgroundImageFix" result="shape"/>
<feGaussianBlur stdDeviation="32" result="effect1_foregroundBlur_827_7063"/>
</filter>
<filter id="filter2_f_827_7063" x="0" y="-7.62939e-06" width="207.38" height="207.5" filterUnits="userSpaceOnUse" color-interpolation-filters="sRGB">
<feFlood flood-opacity="0" result="BackgroundImageFix"/>
<feBlend mode="normal" in="SourceGraphic" in2="BackgroundImageFix" result="shape"/>
<feGaussianBlur stdDeviation="30" result="effect1_foregroundBlur_827_7063"/>
</filter>
<filter id="filter3_f_827_7063" x="54.5254" y="54.7474" width="97.9017" height="98.1226" filterUnits="userSpaceOnUse" color-interpolation-filters="sRGB">
<feFlood flood-opacity="0" result="BackgroundImageFix"/>
<feBlend mode="normal" in="SourceGraphic" in2="BackgroundImageFix" result="shape"/>
<feGaussianBlur stdDeviation="7.29073" result="effect1_foregroundBlur_827_7063"/>
</filter>
<filter id="filter4_f_827_7063" x="66.4839" y="66.7493" width="74.2979" height="74.2979" filterUnits="userSpaceOnUse" color-interpolation-filters="sRGB">
<feFlood flood-opacity="0" result="BackgroundImageFix"/>
<feBlend mode="normal" in="SourceGraphic" in2="BackgroundImageFix" result="shape"/>
<feGaussianBlur stdDeviation="2.133" result="effect1_foregroundBlur_827_7063"/>
</filter>
<filter id="filter5_f_827_7063" x="66.4839" y="66.7493" width="74.2979" height="74.2979" filterUnits="userSpaceOnUse" color-interpolation-filters="sRGB">
<feFlood flood-opacity="0" result="BackgroundImageFix"/>
<feBlend mode="normal" in="SourceGraphic" in2="BackgroundImageFix" result="shape"/>
<feGaussianBlur stdDeviation="2.133" result="effect1_foregroundBlur_827_7063"/>
</filter>
<filter id="filter6_f_827_7063" x="48.3557" y="48.4676" width="107.481" height="107.528" filterUnits="userSpaceOnUse" color-interpolation-filters="sRGB">
<feFlood flood-opacity="0" result="BackgroundImageFix"/>
<feBlend mode="normal" in="SourceGraphic" in2="BackgroundImageFix" result="shape"/>
<feGaussianBlur stdDeviation="9.72097" result="effect1_foregroundBlur_827_7063"/>
</filter>
<filter id="filter7_f_827_7063" x="64.2684" y="63.8059" width="78.4967" height="78.528" filterUnits="userSpaceOnUse" color-interpolation-filters="sRGB">
<feFlood flood-opacity="0" result="BackgroundImageFix"/>
<feBlend mode="normal" in="SourceGraphic" in2="BackgroundImageFix" result="shape"/>
<feGaussianBlur stdDeviation="8" result="effect1_foregroundBlur_827_7063"/>
</filter>
<filter id="filter8_f_827_7063" x="78.7168" y="101.64" width="48.8123" height="46.4742" filterUnits="userSpaceOnUse" color-interpolation-filters="sRGB">
<feFlood flood-opacity="0" result="BackgroundImageFix"/>
<feBlend mode="normal" in="SourceGraphic" in2="BackgroundImageFix" result="shape"/>
<feGaussianBlur stdDeviation="6" result="effect1_foregroundBlur_827_7063"/>
</filter>
<filter id="filter9_f_827_7063" x="67.8794" y="91.6215" width="70.4885" height="58.6866" filterUnits="userSpaceOnUse" color-interpolation-filters="sRGB">
<feFlood flood-opacity="0" result="BackgroundImageFix"/>
<feBlend mode="normal" in="SourceGraphic" in2="BackgroundImageFix" result="shape"/>
<feGaussianBlur stdDeviation="6" result="effect1_foregroundBlur_827_7063"/>
</filter>
<radialGradient id="paint0_radial_827_7063" cx="0" cy="0" r="1" gradientUnits="userSpaceOnUse" gradientTransform="translate(96.7389 71.4127) rotate(114.538) scale(39.1949 39.1949)">
<stop stop-color="#522392"/>
<stop offset="1" stop-color="#522392" stop-opacity="0"/>
</radialGradient>
<radialGradient id="paint1_radial_827_7063" cx="0" cy="0" r="1" gradientUnits="userSpaceOnUse" gradientTransform="translate(72.4609 97.4063) rotate(78.5663) scale(23.7692 23.7692)">
<stop stop-color="#3F40DC"/>
<stop offset="1" stop-color="#3F40DC" stop-opacity="0"/>
</radialGradient>
<radialGradient id="paint2_radial_827_7063" cx="0" cy="0" r="1" gradientUnits="userSpaceOnUse" gradientTransform="translate(82.4081 116.516) rotate(85.0303) scale(18.1303 18.1303)">
<stop stop-color="#7D90FF"/>
<stop offset="1" stop-color="#7D90FF" stop-opacity="0"/>
</radialGradient>
<radialGradient id="paint3_radial_827_7063" cx="0" cy="0" r="1" gradientUnits="userSpaceOnUse" gradientTransform="translate(97.8525 120.966) rotate(130.321) scale(28.7882 28.7882)">
<stop stop-color="white"/>
<stop offset="1" stop-color="white" stop-opacity="0"/>
</radialGradient>
<radialGradient id="paint4_radial_827_7063" cx="0" cy="0" r="1" gradientUnits="userSpaceOnUse" gradientTransform="translate(101.779 126.463) rotate(100.061) scale(32.9664 32.9664)">
<stop stop-color="#7C5D45"/>
<stop offset="1" stop-color="#7C5D45" stop-opacity="0"/>
</radialGradient>
<radialGradient id="paint5_radial_827_7063" cx="0" cy="0" r="1" gradientUnits="userSpaceOnUse" gradientTransform="translate(110.981 113.235) rotate(35.7701) scale(25.4546 25.4547)">
<stop stop-color="white"/>
<stop offset="1" stop-color="white" stop-opacity="0"/>
</radialGradient>
<radialGradient id="paint6_radial_827_7063" cx="0" cy="0" r="1" gradientUnits="userSpaceOnUse" gradientTransform="translate(100.947 76.4955) rotate(114.538) scale(35.3999)">
<stop stop-color="#522392"/>
<stop offset="1" stop-color="#522392" stop-opacity="0"/>
</radialGradient>
<radialGradient id="paint7_radial_827_7063" cx="0" cy="0" r="1" gradientUnits="userSpaceOnUse" gradientTransform="translate(79.0197 99.9723) rotate(78.5663) scale(21.4678)">
<stop stop-color="#3F40DC"/>
<stop offset="1" stop-color="#3F40DC" stop-opacity="0"/>
</radialGradient>
<radialGradient id="paint8_radial_827_7063" cx="0" cy="0" r="1" gradientUnits="userSpaceOnUse" gradientTransform="translate(88.0038 117.231) rotate(85.0303) scale(16.3748)">
<stop stop-color="#7D90FF"/>
<stop offset="1" stop-color="#7D90FF" stop-opacity="0"/>
</radialGradient>
<radialGradient id="paint9_radial_827_7063" cx="0" cy="0" r="1" gradientUnits="userSpaceOnUse" gradientTransform="translate(101.953 121.25) rotate(130.321) scale(26.0008)">
<stop stop-color="white"/>
<stop offset="1" stop-color="white" stop-opacity="0"/>
</radialGradient>
<radialGradient id="paint10_radial_827_7063" cx="0" cy="0" r="1" gradientUnits="userSpaceOnUse" gradientTransform="translate(105.499 126.215) rotate(100.061) scale(29.7744)">
<stop stop-color="#7C5D45"/>
<stop offset="1" stop-color="#7C5D45" stop-opacity="0"/>
</radialGradient>
<radialGradient id="paint11_radial_827_7063" cx="0" cy="0" r="1" gradientUnits="userSpaceOnUse" gradientTransform="translate(113.811 114.268) rotate(35.7701) scale(22.99)">
<stop stop-color="white"/>
<stop offset="1" stop-color="white" stop-opacity="0"/>
</radialGradient>
<linearGradient id="paint12_linear_827_7063" x1="103.633" y1="134.744" x2="101.737" y2="68.7541" gradientUnits="userSpaceOnUse">
<stop stop-color="#FF432B" stop-opacity="0"/>
<stop offset="1" stop-color="#FF432B"/>
</linearGradient>
<linearGradient id="paint13_linear_827_7063" x1="103.633" y1="134.744" x2="101.737" y2="68.7541" gradientUnits="userSpaceOnUse">
<stop stop-color="#FF432B" stop-opacity="0"/>
<stop offset="1" stop-color="#FF432B"/>
</linearGradient>
<linearGradient id="paint14_linear_827_7063" x1="103.633" y1="134.744" x2="101.737" y2="68.7541" gradientUnits="userSpaceOnUse">
<stop stop-color="#FF432B" stop-opacity="0"/>
<stop offset="1" stop-color="#FF432B"/>
</linearGradient>
<linearGradient id="paint15_linear_827_7063" x1="103.633" y1="134.744" x2="101.737" y2="68.754" gradientUnits="userSpaceOnUse">
<stop stop-color="#FF432B" stop-opacity="0"/>
<stop offset="1" stop-color="#FF432B"/>
</linearGradient>
<linearGradient id="paint16_linear_827_7063" x1="102.988" y1="66.6736" x2="102.988" y2="140.186" gradientUnits="userSpaceOnUse">
<stop stop-color="#3D103D"/>
<stop offset="0.471154" stop-color="#322DCA"/>
<stop offset="1" stop-color="#AFBFFF"/>
</linearGradient>
<linearGradient id="paint17_linear_827_7063" x1="104.121" y1="78.9682" x2="104.121" y2="128.797" gradientUnits="userSpaceOnUse">
<stop stop-color="#3D103D"/>
<stop offset="0.471154" stop-color="#322DCA"/>
<stop offset="1" stop-color="#AFBFFF"/>
</linearGradient>
</defs>
</svg>
