<svg width="28" height="28" viewBox="0 0 28 28" fill="none" xmlns="http://www.w3.org/2000/svg">
<path fill-rule="evenodd" clip-rule="evenodd" d="M13.895 2.60531C11.1566 2.60491 8.51129 3.59989 6.4519 5.40493C4.39251 7.20997 3.05941 9.70201 2.70088 12.4169C2.67875 12.5866 2.69027 12.759 2.73477 12.9243C2.77927 13.0895 2.85588 13.2444 2.96023 13.38C3.06458 13.5157 3.19463 13.6294 3.34294 13.7148C3.49126 13.8002 3.65494 13.8555 3.82464 13.8776C3.99433 13.8998 4.16673 13.8882 4.33198 13.8437C4.49723 13.7992 4.65209 13.7226 4.78773 13.6183C4.92337 13.5139 5.03713 13.3839 5.12251 13.2356C5.20789 13.0873 5.26322 12.9236 5.28535 12.7539C5.49993 11.1408 6.16331 9.62053 7.19988 8.36616C8.23645 7.1118 9.60453 6.17383 11.1482 5.65915C12.6919 5.14446 14.3492 5.07375 15.9311 5.45508C17.513 5.8364 18.956 6.65443 20.0957 7.81594H17.803C17.4575 7.81594 17.1262 7.95318 16.8819 8.19748C16.6376 8.44177 16.5004 8.77311 16.5004 9.11859C16.5004 9.46408 16.6376 9.79542 16.8819 10.0397C17.1262 10.284 17.4575 10.4212 17.803 10.4212H23.0136C23.3591 10.4212 23.6905 10.284 23.9347 10.0397C24.179 9.79542 24.3163 9.46408 24.3163 9.11859V3.90797C24.3163 3.56248 24.179 3.23115 23.9347 2.98685C23.6905 2.74256 23.3591 2.60531 23.0136 2.60531C22.6681 2.60531 22.3368 2.74256 22.0925 2.98685C21.8482 3.23115 21.711 3.56248 21.711 3.90797V5.74906C19.6109 3.72883 16.8091 2.60189 13.895 2.60531ZM4.77644 25.1847C4.43096 25.1847 4.09962 25.0474 3.85533 24.8031C3.61103 24.5589 3.47379 24.2275 3.47379 23.882V18.6714C3.47379 18.3259 3.61103 17.9946 3.85533 17.7503C4.09962 17.506 4.43096 17.3688 4.77644 17.3688H9.98707C10.3326 17.3688 10.6639 17.506 10.9082 17.7503C11.1525 17.9946 11.2897 18.3259 11.2897 18.6714C11.2897 19.0169 11.1525 19.3482 10.9082 19.5925C10.6639 19.8368 10.3326 19.9741 9.98707 19.9741H7.69439C8.83397 21.1361 10.2771 21.9546 11.8593 22.3362C13.4415 22.7178 15.0991 22.6472 16.6431 22.1325C18.1871 21.6178 19.5554 20.6796 20.5921 19.4249C21.6288 18.1702 22.2921 16.6495 22.5065 15.0361C22.525 14.8635 22.5777 14.6963 22.6618 14.5444C22.7458 14.3925 22.8593 14.2589 22.9957 14.1515C23.132 14.0441 23.2885 13.965 23.4559 13.9189C23.6232 13.8728 23.7981 13.8607 23.9702 13.8831C24.1424 13.9056 24.3083 13.9622 24.4582 14.0497C24.6082 14.1372 24.7391 14.2538 24.8433 14.3926C24.9476 14.5314 25.023 14.6896 25.0653 14.858C25.1075 15.0264 25.1156 15.2015 25.0892 15.3731C24.8158 17.4421 23.9742 19.3949 22.6581 21.0146C21.3419 22.6342 19.6026 23.8574 17.6333 24.5484C15.6639 25.2393 13.5416 25.3709 11.502 24.9286C9.46241 24.4863 7.5853 23.4873 6.0791 22.0427V23.882C6.0791 24.2275 5.94186 24.5589 5.69756 24.8031C5.45327 25.0474 5.12193 25.1847 4.77644 25.1847Z" fill="white"/>
</svg>
