<svg width="16" height="16" viewBox="0 0 16 16" fill="none" xmlns="http://www.w3.org/2000/svg">
<path fill-rule="evenodd" clip-rule="evenodd" d="M6.086 0.782006C5.96175 0.626589 5.78084 0.526897 5.58309 0.504861C5.38533 0.482826 5.18692 0.540252 5.0315 0.664506C4.87608 0.788759 4.77639 0.969663 4.75436 1.16742C4.73232 1.36518 4.78975 1.56359 4.914 1.71901L5.94 3.00001H4C3.20435 3.00001 2.44129 3.31608 1.87868 3.87869C1.31607 4.44129 1 5.20436 1 6.00001V11C0.999909 11.7594 1.28779 12.4905 1.80557 13.046C2.32335 13.6014 3.0325 13.9399 3.79 13.993L3.58 14.414C3.50095 14.5904 3.49308 14.7906 3.55804 14.9727C3.623 15.1548 3.75576 15.3047 3.92863 15.3913C4.1015 15.4779 4.30111 15.4943 4.48583 15.4373C4.67054 15.3802 4.82609 15.254 4.92 15.085L5.42 14.085C5.43398 14.0573 5.44666 14.0289 5.458 14H10.544C10.554 14.0287 10.566 14.057 10.58 14.085L11.08 15.085C11.1698 15.2614 11.3256 15.3951 11.5136 15.4571C11.7015 15.519 11.9063 15.5042 12.0834 15.4158C12.2605 15.3274 12.3954 15.1726 12.4588 14.9851C12.5223 14.7977 12.509 14.5927 12.422 14.415L12.211 13.993C12.9683 13.9396 13.6772 13.6011 14.1948 13.0456C14.7124 12.4902 15.0001 11.7592 15 11V6.00001C15 5.20436 14.6839 4.44129 14.1213 3.87869C13.5587 3.31608 12.7956 3.00001 12 3.00001H10.06L11.086 1.71901C11.2103 1.56359 11.2677 1.36518 11.2456 1.16742C11.2236 0.969663 11.1239 0.788759 10.9685 0.664506C10.8915 0.602981 10.8032 0.557217 10.7086 0.529825C10.6139 0.502433 10.5148 0.493951 10.4169 0.504861C10.2192 0.526897 10.0383 0.626589 9.914 0.782006L8.14 3.00001H7.86L6.086 0.782006ZM7.494 4.50001H12C12.3978 4.50001 12.7794 4.65804 13.0607 4.93935C13.342 5.22065 13.5 5.60218 13.5 6.00001V11C13.5 11.3978 13.342 11.7794 13.0607 12.0607C12.7794 12.342 12.3978 12.5 12 12.5H4C3.60218 12.5 3.22064 12.342 2.93934 12.0607C2.65804 11.7794 2.5 11.3978 2.5 11V6.00001C2.5 5.60218 2.65804 5.22065 2.93934 4.93935C3.22064 4.65804 3.60218 4.50001 4 4.50001H7.494ZM5.5 7.50001V9.50001H8V7.50001H5.5ZM5 6.00001C4.73478 6.00001 4.48043 6.10536 4.29289 6.2929C4.10536 6.48044 4 6.73479 4 7.00001V10C4 10.2652 4.10536 10.5196 4.29289 10.7071C4.48043 10.8946 4.73478 11 5 11H8.5C8.76522 11 9.01957 10.8946 9.20711 10.7071C9.39464 10.5196 9.5 10.2652 9.5 10V7.00001C9.5 6.73479 9.39464 6.48044 9.20711 6.2929C9.01957 6.10536 8.76522 6.00001 8.5 6.00001H5ZM12 6.75001C12 6.55109 11.921 6.36033 11.7803 6.21968C11.6397 6.07902 11.4489 6.00001 11.25 6.00001C11.0511 6.00001 10.8603 6.07902 10.7197 6.21968C10.579 6.36033 10.5 6.55109 10.5 6.75001V10.25C10.5 10.4489 10.579 10.6397 10.7197 10.7803C10.8603 10.921 11.0511 11 11.25 11C11.4489 11 11.6397 10.921 11.7803 10.7803C11.921 10.6397 12 10.4489 12 10.25V6.75001Z" fill="white"/>
</svg>
