<svg width="10" height="10" viewBox="0 0 10 10" fill="none" xmlns="http://www.w3.org/2000/svg">
<g clip-path="url(#clip0_649_5437)">
<path fill-rule="evenodd" clip-rule="evenodd" d="M4.93256 8.32392C5.83197 8.32392 6.69454 7.96663 7.33052 7.33065C7.9665 6.69467 8.32379 5.8321 8.32379 4.93269C8.32379 4.03328 7.9665 3.17071 7.33052 2.53473C6.69454 1.89876 5.83197 1.54147 4.93256 1.54147C4.03315 1.54147 3.17058 1.89876 2.5346 2.53473C1.89862 3.17071 1.54133 4.03328 1.54133 4.93269C1.54133 5.8321 1.89862 6.69467 2.5346 7.33065C3.17058 7.96663 4.03315 8.32392 4.93256 8.32392ZM4.93256 9.2488C6.07726 9.2488 7.17508 8.79407 7.98451 7.98464C8.79394 7.17521 9.24867 6.0774 9.24867 4.93269C9.24867 3.78799 8.79394 2.69017 7.98451 1.88075C7.17508 1.07132 6.07726 0.616587 4.93256 0.616587C3.78786 0.616587 2.69004 1.07132 1.88061 1.88075C1.07119 2.69017 0.616455 3.78799 0.616455 4.93269C0.616455 6.0774 1.07119 7.17521 1.88061 7.98464C2.69004 8.79407 3.78786 9.2488 4.93256 9.2488ZM5.54915 3.39123C5.54915 3.55476 5.48419 3.71159 5.36855 3.82722C5.25292 3.94285 5.09609 4.00781 4.93256 4.00781C4.76903 4.00781 4.6122 3.94285 4.49657 3.82722C4.38094 3.71159 4.31597 3.55476 4.31597 3.39123C4.31597 3.2277 4.38094 3.07087 4.49657 2.95523C4.6122 2.8396 4.76903 2.77464 4.93256 2.77464C5.09609 2.77464 5.25292 2.8396 5.36855 2.95523C5.48419 3.07087 5.54915 3.2277 5.54915 3.39123ZM5.395 5.24099C5.395 5.11834 5.34628 5.00072 5.25956 4.91399C5.17283 4.82727 5.05521 4.77855 4.93256 4.77855C4.80991 4.77855 4.69229 4.82727 4.60557 4.91399C4.51884 5.00072 4.47012 5.11834 4.47012 5.24099V6.78245C4.47012 6.9051 4.51884 7.02272 4.60557 7.10945C4.69229 7.19617 4.80991 7.24489 4.93256 7.24489C5.05521 7.24489 5.17283 7.19617 5.25956 7.10945C5.34628 7.02272 5.395 6.9051 5.395 6.78245V5.24099Z" fill="#E6E6E6"/>
</g>
<defs>
<clipPath id="clip0_649_5437">
<rect width="9.86539" height="9.86539" fill="white"/>
</clipPath>
</defs>
</svg>
