<svg width="15" height="15" viewBox="0 0 15 15" fill="none" xmlns="http://www.w3.org/2000/svg">
<path fill-rule="evenodd" clip-rule="evenodd" d="M10.3116 7.96782C9.93864 7.96782 9.58096 8.11598 9.31723 8.3797C9.05351 8.64342 8.90535 9.00111 8.90535 9.37407C8.90535 9.74703 9.05351 10.1047 9.31723 10.3684C9.58096 10.6322 9.93864 10.7803 10.3116 10.7803C10.6846 10.7803 11.0422 10.6322 11.306 10.3684C11.5697 10.1047 11.7179 9.74703 11.7179 9.37407C11.7179 9.00111 11.5697 8.64342 11.306 8.3797C11.0422 8.11598 10.6846 7.96782 10.3116 7.96782ZM9.60848 6.64969C9.00473 6.80576 8.46993 7.15798 8.08813 7.65103C7.70632 8.14408 7.49915 8.75 7.49915 9.3736C7.49915 9.99719 7.70632 10.6031 8.08813 11.0962C8.46993 11.5892 9.00473 11.9414 9.60848 12.0975V13.3603C9.60848 13.5468 9.68256 13.7256 9.81442 13.8575C9.94628 13.9894 10.1251 14.0634 10.3116 14.0634C10.4981 14.0634 10.6769 13.9894 10.8088 13.8575C10.9406 13.7256 11.0147 13.5468 11.0147 13.3603V12.0975C11.6185 11.9414 12.1533 11.5892 12.5351 11.0962C12.9169 10.6031 13.1241 9.99719 13.1241 9.3736C13.1241 8.75 12.9169 8.14408 12.5351 7.65103C12.1533 7.15798 11.6185 6.80576 11.0147 6.64969V1.63875C11.0147 1.45227 10.9406 1.27343 10.8088 1.14157C10.6769 1.00971 10.4981 0.93563 10.3116 0.93563C10.1251 0.93563 9.94628 1.00971 9.81442 1.14157C9.68256 1.27343 9.60848 1.45227 9.60848 1.63875V6.64969ZM5.38973 13.3603V8.34938C5.99306 8.193 6.52739 7.84069 6.90884 7.34777C7.29028 6.85485 7.49725 6.24922 7.49725 5.62594C7.49725 5.00267 7.29028 4.39704 6.90884 3.90412C6.52739 3.41119 5.99306 3.05889 5.38973 2.9025V1.63782C5.38973 1.45134 5.31565 1.27249 5.18379 1.14063C5.05193 1.00877 4.87308 0.934692 4.6866 0.934692C4.50012 0.934692 4.32128 1.00877 4.18942 1.14063C4.05756 1.27249 3.98348 1.45134 3.98348 1.63782V2.90063C3.37973 3.05669 2.84493 3.40892 2.46313 3.90197C2.08132 4.39502 1.87415 5.00094 1.87415 5.62454C1.87415 6.24813 2.08132 6.85406 2.46313 7.3471C2.84493 7.84015 3.37973 8.19238 3.98348 8.34844V13.3594C3.98348 13.5459 4.05756 13.7247 4.18942 13.8566C4.32128 13.9884 4.50012 14.0625 4.6866 14.0625C4.87308 14.0625 5.05193 13.9884 5.18379 13.8566C5.31565 13.7247 5.38973 13.5459 5.38973 13.3594M6.09285 5.62501C6.09285 5.99797 5.94469 6.35565 5.68097 6.61937C5.41725 6.8831 5.05956 7.03126 4.6866 7.03126C4.31364 7.03126 3.95596 6.8831 3.69223 6.61937C3.42851 6.35565 3.28035 5.99797 3.28035 5.62501C3.28035 5.25204 3.42851 4.89436 3.69223 4.63064C3.95596 4.36691 4.31364 4.21876 4.6866 4.21876C5.05956 4.21876 5.41725 4.36691 5.68097 4.63064C5.94469 4.89436 6.09285 5.25204 6.09285 5.62501Z" fill="#A5A4A5"/>
</svg>
