<svg width="16" height="16" viewBox="0 0 16 16" fill="none" xmlns="http://www.w3.org/2000/svg">
<g clip-path="url(#clip0_666_3493)">
<path fill-rule="evenodd" clip-rule="evenodd" d="M3 4H13C13.3978 4 13.7794 4.15804 14.0607 4.43934C14.342 4.72064 14.5 5.10218 14.5 5.5V10.5C14.5 10.8978 14.342 11.2794 14.0607 11.5607C13.7794 11.842 13.3978 12 13 12H3C2.60218 12 2.22064 11.842 1.93934 11.5607C1.65804 11.2794 1.5 10.8978 1.5 10.5V5.5C1.5 5.10218 1.65804 4.72064 1.93934 4.43934C2.22064 4.15804 2.60218 4 3 4ZM0 5.5C0 4.70435 0.31607 3.94129 0.87868 3.37868C1.44129 2.81607 2.20435 2.5 3 2.5H13C13.7956 2.5 14.5587 2.81607 15.1213 3.37868C15.6839 3.94129 16 4.70435 16 5.5V10.5C16 11.2956 15.6839 12.0587 15.1213 12.6213C14.5587 13.1839 13.7956 13.5 13 13.5H3C2.20435 13.5 1.44129 13.1839 0.87868 12.6213C0.31607 12.0587 0 11.2956 0 10.5L0 5.5ZM6.25 8.75C6.05109 8.75 5.86032 8.82902 5.71967 8.96967C5.57902 9.11032 5.5 9.30109 5.5 9.5C5.5 9.69891 5.57902 9.88968 5.71967 10.0303C5.86032 10.171 6.05109 10.25 6.25 10.25H9.75C9.94891 10.25 10.1397 10.171 10.2803 10.0303C10.421 9.88968 10.5 9.69891 10.5 9.5C10.5 9.30109 10.421 9.11032 10.2803 8.96967C10.1397 8.82902 9.94891 8.75 9.75 8.75H6.25ZM4.5 6.5C4.5 6.76522 4.39464 7.01957 4.20711 7.20711C4.01957 7.39464 3.76522 7.5 3.5 7.5C3.23478 7.5 2.98043 7.39464 2.79289 7.20711C2.60536 7.01957 2.5 6.76522 2.5 6.5C2.5 6.23478 2.60536 5.98043 2.79289 5.79289C2.98043 5.60536 3.23478 5.5 3.5 5.5C3.76522 5.5 4.01957 5.60536 4.20711 5.79289C4.39464 5.98043 4.5 6.23478 4.5 6.5ZM6.5 7.5C6.76522 7.5 7.01957 7.39464 7.20711 7.20711C7.39464 7.01957 7.5 6.76522 7.5 6.5C7.5 6.23478 7.39464 5.98043 7.20711 5.79289C7.01957 5.60536 6.76522 5.5 6.5 5.5C6.23478 5.5 5.98043 5.60536 5.79289 5.79289C5.60536 5.98043 5.5 6.23478 5.5 6.5C5.5 6.76522 5.60536 7.01957 5.79289 7.20711C5.98043 7.39464 6.23478 7.5 6.5 7.5ZM10.5 6.5C10.5 6.76522 10.3946 7.01957 10.2071 7.20711C10.0196 7.39464 9.76522 7.5 9.5 7.5C9.23478 7.5 8.98043 7.39464 8.79289 7.20711C8.60536 7.01957 8.5 6.76522 8.5 6.5C8.5 6.23478 8.60536 5.98043 8.79289 5.79289C8.98043 5.60536 9.23478 5.5 9.5 5.5C9.76522 5.5 10.0196 5.60536 10.2071 5.79289C10.3946 5.98043 10.5 6.23478 10.5 6.5ZM12.5 7.5C12.7652 7.5 13.0196 7.39464 13.2071 7.20711C13.3946 7.01957 13.5 6.76522 13.5 6.5C13.5 6.23478 13.3946 5.98043 13.2071 5.79289C13.0196 5.60536 12.7652 5.5 12.5 5.5C12.2348 5.5 11.9804 5.60536 11.7929 5.79289C11.6054 5.98043 11.5 6.23478 11.5 6.5C11.5 6.76522 11.6054 7.01957 11.7929 7.20711C11.9804 7.39464 12.2348 7.5 12.5 7.5ZM4.5 9.5C4.5 9.76522 4.39464 10.0196 4.20711 10.2071C4.01957 10.3946 3.76522 10.5 3.5 10.5C3.23478 10.5 2.98043 10.3946 2.79289 10.2071C2.60536 10.0196 2.5 9.76522 2.5 9.5C2.5 9.23478 2.60536 8.98043 2.79289 8.79289C2.98043 8.60536 3.23478 8.5 3.5 8.5C3.76522 8.5 4.01957 8.60536 4.20711 8.79289C4.39464 8.98043 4.5 9.23478 4.5 9.5ZM12.5 10.5C12.7652 10.5 13.0196 10.3946 13.2071 10.2071C13.3946 10.0196 13.5 9.76522 13.5 9.5C13.5 9.23478 13.3946 8.98043 13.2071 8.79289C13.0196 8.60536 12.7652 8.5 12.5 8.5C12.2348 8.5 11.9804 8.60536 11.7929 8.79289C11.6054 8.98043 11.5 9.23478 11.5 9.5C11.5 9.76522 11.6054 10.0196 11.7929 10.2071C11.9804 10.3946 12.2348 10.5 12.5 10.5Z" fill="#E6E6E6"/>
</g>
<defs>
<clipPath id="clip0_666_3493">
<rect width="16" height="16" fill="white"/>
</clipPath>
</defs>
</svg>
