<svg width="16" height="16" viewBox="0 0 16 16" fill="none" xmlns="http://www.w3.org/2000/svg">
<g clip-path="url(#clip0_533_4053)">
<path fill-rule="evenodd" clip-rule="evenodd" d="M6.26 15.109C6.8026 15.3711 7.39741 15.5073 8 15.5073C8.6026 15.5073 9.19741 15.3711 9.74 15.109L9.87 15.046C10.2085 14.8825 10.494 14.6269 10.6939 14.3085C10.8937 13.9902 10.9998 13.6219 11 13.246V12.778C11 11.426 11.776 10.221 12.54 9.105C13.105 8.27872 13.4339 7.31391 13.491 6.31454C13.5482 5.31517 13.3315 4.31915 12.8644 3.43383C12.3973 2.5485 11.6974 1.80745 10.8402 1.29053C9.98302 0.773605 9.001 0.500423 8 0.500423C6.999 0.500423 6.01698 0.773605 5.15978 1.29053C4.30258 1.80745 3.6027 2.5485 3.13558 3.43383C2.66846 4.31915 2.45181 5.31517 2.50898 6.31454C2.56615 7.31391 2.89497 8.27872 3.46 9.105C4.224 10.221 5 11.426 5 12.779V13.246C4.99998 13.6221 5.10598 13.9905 5.30586 14.3091C5.50573 14.6277 5.79137 14.8834 6.13 15.047L6.26 15.109ZM9.088 13.759L9.218 13.695C9.30253 13.6541 9.37381 13.5901 9.42368 13.5105C9.47356 13.4309 9.50001 13.3389 9.5 13.245V12.778C9.5 12.608 9.50833 12.4413 9.525 12.278C8.53004 12.5751 7.46996 12.5751 6.475 12.278C6.491 12.4413 6.49933 12.608 6.5 12.778V13.245C6.5 13.3389 6.52645 13.4309 6.57632 13.5105C6.62619 13.5901 6.69748 13.6541 6.782 13.695L6.912 13.758C7.25126 13.922 7.62319 14.0072 8 14.0072C8.37681 14.0072 8.74875 13.923 9.088 13.759ZM4.698 8.257C5.092 8.833 5.589 9.559 5.961 10.405C6.57004 10.7937 7.27749 11.0002 8 11.0002C8.72251 11.0002 9.42996 10.7937 10.039 10.405C10.411 9.559 10.908 8.833 11.303 8.257C11.7137 7.65603 11.9526 6.95439 11.994 6.22767C12.0354 5.50095 11.8778 4.7767 11.538 4.13297C11.1982 3.48924 10.6892 2.95043 10.0659 2.57459C9.4425 2.19875 8.7284 2.00012 8.0005 2.00012C7.2726 2.00012 6.5585 2.19875 5.93514 2.57459C5.31178 2.95043 4.8028 3.48924 4.46302 4.13297C4.12325 4.7767 3.96557 5.50095 4.00698 6.22767C4.04839 6.95439 4.28731 7.65603 4.698 8.257Z" fill="#E6E6E6"/>
<path d="M8 3.5C7.80109 3.5 7.61032 3.57902 7.46967 3.71967C7.32902 3.86032 7.25 4.05109 7.25 4.25C7.25 4.44891 7.32902 4.63968 7.46967 4.78033C7.61032 4.92098 7.80109 5 8 5C8.26522 5 8.51957 5.10536 8.70711 5.29289C8.89464 5.48043 9 5.73478 9 6C9 6.19891 9.07902 6.38968 9.21967 6.53033C9.36032 6.67098 9.55109 6.75 9.75 6.75C9.94891 6.75 10.1397 6.67098 10.2803 6.53033C10.421 6.38968 10.5 6.19891 10.5 6C10.5 5.33696 10.2366 4.70107 9.76777 4.23223C9.29893 3.76339 8.66304 3.5 8 3.5Z" fill="#E6E6E6"/>
</g>
<defs>
<clipPath id="clip0_533_4053">
<rect width="16" height="16" fill="white"/>
</clipPath>
</defs>
</svg>
