<svg width="28" height="28" viewBox="0 0 28 28" fill="none" xmlns="http://www.w3.org/2000/svg">
<path fill-rule="evenodd" clip-rule="evenodd" d="M23.4269 5.95748C23.5569 6.06886 23.6636 6.20476 23.741 6.35741C23.8185 6.51007 23.865 6.67648 23.8781 6.84713C23.8912 7.01779 23.8705 7.18935 23.8172 7.35201C23.7639 7.51467 23.6791 7.66523 23.5676 7.7951L13.1464 19.9532C13.0295 20.0895 12.8858 20.2002 12.7241 20.2783C12.5625 20.3565 12.3864 20.4003 12.207 20.4072C12.0276 20.414 11.8488 20.3837 11.6816 20.3181C11.5145 20.2526 11.3627 20.1532 11.2358 20.0262L5.15675 13.9471C4.91958 13.7013 4.78843 13.3722 4.79156 13.0306C4.79469 12.6891 4.93184 12.3624 5.17348 12.121C5.41512 11.8796 5.7419 11.7428 6.08346 11.74C6.42501 11.7372 6.75401 11.8686 6.99958 12.106L12.0851 17.1899L21.5911 6.09991C21.816 5.83796 22.1357 5.676 22.4799 5.64962C22.8241 5.62324 23.1648 5.73286 23.4269 5.95748Z" fill="white"/>
</svg>
