<svg width="16" height="16" viewBox="0 0 16 16" fill="none" xmlns="http://www.w3.org/2000/svg">
<g clip-path="url(#clip0_533_4058)">
<path fill-rule="evenodd" clip-rule="evenodd" d="M10.999 8.49895C10.6012 8.49895 10.2196 8.65698 9.93832 8.93829C9.65701 9.21959 9.49898 9.60112 9.49898 9.99895C9.49898 10.3968 9.65701 10.7783 9.93832 11.0596C10.2196 11.3409 10.6012 11.4989 10.999 11.4989C11.3968 11.4989 11.7783 11.3409 12.0596 11.0596C12.3409 10.7783 12.499 10.3968 12.499 9.99895C12.499 9.60112 12.3409 9.21959 12.0596 8.93829C11.7783 8.65698 11.3968 8.49895 10.999 8.49895ZM10.249 7.09295C9.60498 7.25942 9.03453 7.63513 8.62727 8.16104C8.22001 8.68696 7.99902 9.33328 7.99902 9.99845C7.99902 10.6636 8.22001 11.3099 8.62727 11.8359C9.03453 12.3618 9.60498 12.7375 10.249 12.9039V14.2509C10.249 14.4499 10.328 14.6406 10.4686 14.7813C10.6093 14.9219 10.8001 15.0009 10.999 15.0009C11.1979 15.0009 11.3887 14.9219 11.5293 14.7813C11.67 14.6406 11.749 14.4499 11.749 14.2509V12.9039C12.393 12.7375 12.9634 12.3618 13.3707 11.8359C13.7779 11.3099 13.9989 10.6636 13.9989 9.99845C13.9989 9.33328 13.7779 8.68696 13.3707 8.16104C12.9634 7.63513 12.393 7.25942 11.749 7.09295V1.74795C11.749 1.54904 11.67 1.35827 11.5293 1.21762C11.3887 1.07697 11.1979 0.997948 10.999 0.997948C10.8001 0.997948 10.6093 1.07697 10.4686 1.21762C10.328 1.35827 10.249 1.54904 10.249 1.74795V7.09295ZM5.74898 14.2509V8.90595C6.39254 8.73914 6.96249 8.36335 7.36936 7.83756C7.77624 7.31178 7.997 6.66577 7.997 6.00095C7.997 5.33612 7.77624 4.69012 7.36936 4.16433C6.96249 3.63855 6.39254 3.26276 5.74898 3.09595V1.74695C5.74898 1.54804 5.66996 1.35727 5.52931 1.21662C5.38866 1.07597 5.19789 0.996948 4.99898 0.996948C4.80006 0.996948 4.6093 1.07597 4.46865 1.21662C4.32799 1.35727 4.24898 1.54804 4.24898 1.74695V3.09395C3.60498 3.26042 3.03453 3.63613 2.62727 4.16204C2.22001 4.68796 1.99902 5.33428 1.99902 5.99945C1.99902 6.66462 2.22001 7.31094 2.62727 7.83685C3.03453 8.36277 3.60498 8.73848 4.24898 8.90495V14.2499C4.24898 14.4489 4.32799 14.6396 4.46865 14.7803C4.6093 14.9209 4.80006 14.9999 4.99898 14.9999C5.19789 14.9999 5.38866 14.9209 5.52931 14.7803C5.66996 14.6396 5.74898 14.4489 5.74898 14.2499M6.49898 5.99995C6.49898 6.39777 6.34094 6.7793 6.05964 7.06061C5.77833 7.34191 5.3968 7.49995 4.99898 7.49995C4.60115 7.49995 4.21962 7.34191 3.93832 7.06061C3.65701 6.7793 3.49898 6.39777 3.49898 5.99995C3.49898 5.60212 3.65701 5.22059 3.93832 4.93929C4.21962 4.65798 4.60115 4.49995 4.99898 4.49995C5.3968 4.49995 5.77833 4.65798 6.05964 4.93929C6.34094 5.22059 6.49898 5.60212 6.49898 5.99995Z" fill="black"/>
</g>
<defs>
<clipPath id="clip0_533_4058">
<rect width="16" height="16" fill="white"/>
</clipPath>
</defs>
</svg>
