<svg width="24" height="24" viewBox="0 0 24 24" fill="none" xmlns="http://www.w3.org/2000/svg">
<path d="M7.875 2.25C9.324 2.25 10.5 3.426 10.5 4.875V19.125C10.5 19.8212 10.2234 20.4889 9.73116 20.9812C9.23887 21.4734 8.57119 21.75 7.875 21.75H4.875L4.6065 21.7365C4.00663 21.6746 3.44639 21.408 3.01996 20.9815C2.59354 20.5551 2.32694 19.9949 2.265 19.395L2.25 19.125V4.875C2.24993 4.22525 2.49085 3.59856 2.92614 3.11617C3.36143 2.63377 3.96015 2.32996 4.6065 2.2635L4.875 2.25H7.875ZM19.125 2.25C20.574 2.25 21.75 3.426 21.75 4.875V19.125C21.75 19.8212 21.4734 20.4889 20.9812 20.9812C20.4889 21.4734 19.8212 21.75 19.125 21.75H16.125L15.8565 21.7365C15.2566 21.6746 14.6964 21.408 14.27 20.9815C13.8435 20.5551 13.5769 19.9949 13.515 19.395L13.5 19.125V4.875C13.4999 4.22525 13.7408 3.59856 14.1761 3.11617C14.6114 2.63377 15.2102 2.32996 15.8565 2.2635L16.125 2.25H19.125ZM4.875 4.5C4.77554 4.5 4.68016 4.53951 4.60984 4.60984C4.53951 4.68016 4.5 4.77554 4.5 4.875V19.125C4.5 19.332 4.668 19.5 4.875 19.5H7.875C7.97446 19.5 8.06984 19.4605 8.14017 19.3902C8.21049 19.3198 8.25 19.2245 8.25 19.125V4.875C8.25 4.77554 8.21049 4.68016 8.14017 4.60984C8.06984 4.53951 7.97446 4.5 7.875 4.5H4.875ZM16.125 4.5C16.0255 4.5 15.9302 4.53951 15.8598 4.60984C15.7895 4.68016 15.75 4.77554 15.75 4.875V19.125C15.75 19.332 15.918 19.5 16.125 19.5H19.125C19.2245 19.5 19.3198 19.4605 19.3902 19.3902C19.4605 19.3198 19.5 19.2245 19.5 19.125V4.875C19.5 4.77554 19.4605 4.68016 19.3902 4.60984C19.3198 4.53951 19.2245 4.5 19.125 4.5H16.125Z" fill="#E6E6E6"/>
</svg>
