<svg width="16" height="16" viewBox="0 0 16 16" fill="none" xmlns="http://www.w3.org/2000/svg">
<path fill-rule="evenodd" clip-rule="evenodd" d="M3.46993 6.53C3.61144 6.39345 3.80093 6.31794 3.99758 6.31974C4.19423 6.32154 4.3823 6.40051 4.52129 6.53963C4.66028 6.67875 4.73907 6.8669 4.74068 7.06355C4.7423 7.2602 4.66661 7.44962 4.52993 7.591L3.80293 8.318C3.29687 8.83411 3.01499 9.52911 3.01854 10.2519C3.0221 10.9747 3.31081 11.6669 3.82192 12.178C4.33302 12.6891 5.02521 12.9778 5.74802 12.9814C6.47082 12.9849 7.16582 12.7031 7.68193 12.197L8.40893 11.47C8.5511 11.3375 8.73915 11.2654 8.93345 11.2688C9.12775 11.2723 9.31313 11.351 9.45055 11.4884C9.58796 11.6258 9.66667 11.8112 9.6701 12.0055C9.67353 12.1998 9.60141 12.3878 9.46893 12.53L8.74293 13.257C7.94377 14.0356 6.87009 14.4681 5.75436 14.4609C4.63864 14.4536 3.57067 14.0072 2.78172 13.2182C1.99276 12.4293 1.54632 11.3613 1.53906 10.2456C1.5318 9.12984 1.96431 8.05616 2.74293 7.257L3.46993 6.53ZM11.4699 8.409C11.3374 8.55118 11.2653 8.73922 11.2688 8.93352C11.2722 9.12783 11.3509 9.31321 11.4883 9.45062C11.6257 9.58804 11.8111 9.66675 12.0054 9.67018C12.1997 9.67361 12.3878 9.60148 12.5299 9.469L13.2569 8.743C14.0355 7.94385 14.4681 6.87016 14.4608 5.75444C14.4535 4.63871 14.0071 3.57075 13.2181 2.78179C12.4292 1.99284 11.3612 1.5464 10.2455 1.53914C9.12977 1.53188 8.05608 1.96438 7.25693 2.743L6.52993 3.47C6.39337 3.61152 6.31787 3.80101 6.31967 3.99765C6.32147 4.1943 6.40043 4.38237 6.53955 4.52137C6.67868 4.66036 6.86682 4.73914 7.06347 4.74076C7.26012 4.74238 7.44954 4.66669 7.59093 4.53L8.31793 3.803C8.83404 3.29695 9.52903 3.01506 10.2518 3.01862C10.9746 3.02218 11.6668 3.31089 12.1779 3.82199C12.689 4.3331 12.9778 5.02529 12.9813 5.74809C12.9849 6.4709 12.703 7.16589 12.1969 7.682L11.4699 8.409ZM10.5299 6.53C10.6036 6.46134 10.6627 6.37854 10.7037 6.28654C10.7447 6.19454 10.7667 6.09523 10.7685 5.99452C10.7703 5.89382 10.7518 5.79379 10.714 5.7004C10.6763 5.60702 10.6202 5.52218 10.549 5.45096C10.4777 5.37975 10.3929 5.3236 10.2995 5.28588C10.2061 5.24816 10.1061 5.22963 10.0054 5.23141C9.9047 5.23319 9.80539 5.25523 9.71339 5.29622C9.62139 5.33721 9.53859 5.39632 9.46993 5.47L5.46993 9.47C5.39624 9.53866 5.33714 9.62147 5.29615 9.71346C5.25515 9.80546 5.23311 9.90478 5.23133 10.0055C5.22956 10.1062 5.24808 10.2062 5.2858 10.2996C5.32352 10.393 5.37967 10.4778 5.45089 10.549C5.52211 10.6203 5.60694 10.6764 5.70033 10.7141C5.79372 10.7518 5.89375 10.7704 5.99445 10.7686C6.09515 10.7668 6.19446 10.7448 6.28646 10.7038C6.37846 10.6628 6.46126 10.6037 6.52993 10.53L10.5299 6.53Z" fill="#E6E6E6"/>
</svg>
