<svg width="16" height="16" viewBox="0 0 16 16" fill="none" xmlns="http://www.w3.org/2000/svg">
<path fill-rule="evenodd" clip-rule="evenodd" d="M11.1 5.89399L10.688 6.79699L11.359 7.52899L12.715 9.00899L10.721 8.78199L9.73497 8.66899L9.24497 9.53299L8.25797 11.28L7.85797 9.31299L7.65997 8.34099L6.68697 8.14299L4.72097 7.74299L6.46697 6.75399L7.33097 6.26499L7.21897 5.27899L6.99197 3.28499L8.46997 4.64099L9.20197 5.31099L10.105 4.89999L11.931 4.06799L11.1 5.89399ZM7.01997 1.27599L9.48497 3.53599L12.528 2.14899C13.37 1.76499 14.236 2.63199 13.853 3.47299L12.466 6.51599L14.725 8.98099C15.35 9.66299 14.794 10.755 13.875 10.651L10.552 10.271L8.90597 13.182C8.44997 13.987 7.23997 13.795 7.05597 12.889L6.38897 9.61199L3.11197 8.94599C2.20597 8.76099 2.01397 7.55099 2.81897 7.09599L5.72897 5.44899L5.35097 2.12699C5.24597 1.20699 6.33797 0.649994 7.01997 1.27599ZM5.52997 11.53C5.60366 11.4613 5.66276 11.3785 5.70375 11.2865C5.74474 11.1945 5.76679 11.0952 5.76856 10.9945C5.77034 10.8938 5.75181 10.7938 5.71409 10.7004C5.67637 10.607 5.62023 10.5222 5.54901 10.451C5.47779 10.3797 5.39296 10.3236 5.29957 10.2859C5.20618 10.2481 5.10615 10.2296 5.00545 10.2314C4.90475 10.2332 4.80543 10.2552 4.71343 10.2962C4.62143 10.3372 4.53863 10.3963 4.46997 10.47L0.969971 13.97C0.896284 14.0387 0.837181 14.1215 0.79619 14.2135C0.755198 14.3055 0.733156 14.4048 0.731379 14.5055C0.729602 14.6062 0.748127 14.7062 0.785848 14.7996C0.823569 14.893 0.879713 14.9778 0.950932 15.049C1.02215 15.1202 1.10698 15.1764 1.20037 15.2141C1.29376 15.2518 1.39379 15.2704 1.49449 15.2686C1.5952 15.2668 1.69451 15.2448 1.78651 15.2038C1.87851 15.1628 1.96131 15.1037 2.02997 15.03L5.52997 11.53Z" fill="#E6E6E6"/>
</svg>
