<svg width="16" height="16" viewBox="0 0 16 16" fill="none" xmlns="http://www.w3.org/2000/svg">
<path fill-rule="evenodd" clip-rule="evenodd" d="M11.1 5.89399L10.688 6.79699L11.359 7.52899L12.715 9.00899L10.721 8.78199L9.73503 8.66899L9.24503 9.53299L8.25803 11.28L7.85803 9.31299L7.66003 8.34099L6.68703 8.14299L4.72103 7.74299L6.46703 6.75399L7.33103 6.26499L7.21903 5.27899L6.99203 3.28499L8.47003 4.64099L9.20203 5.31099L10.105 4.89999L11.931 4.06799L11.1 5.89399ZM7.02003 1.27599L9.48503 3.53599L12.528 2.14899C13.37 1.76499 14.236 2.63199 13.853 3.47299L12.466 6.51599L14.725 8.98099C15.35 9.66299 14.794 10.755 13.875 10.651L10.552 10.271L8.90603 13.182C8.45003 13.987 7.24003 13.795 7.05603 12.889L6.38903 9.61199L3.11203 8.94599C2.20603 8.76099 2.01403 7.55099 2.81903 7.09599L5.72903 5.44899L5.35103 2.12699C5.24603 1.20699 6.33803 0.649994 7.02003 1.27599ZM5.53003 11.53C5.60372 11.4613 5.66282 11.3785 5.70381 11.2865C5.7448 11.1945 5.76685 11.0952 5.76862 10.9945C5.7704 10.8938 5.75188 10.7938 5.71415 10.7004C5.67643 10.607 5.62029 10.5222 5.54907 10.451C5.47785 10.3797 5.39302 10.3236 5.29963 10.2859C5.20624 10.2481 5.10621 10.2296 5.00551 10.2314C4.90481 10.2332 4.80549 10.2552 4.71349 10.2962C4.62149 10.3372 4.53869 10.3963 4.47003 10.47L0.970032 13.97C0.896345 14.0387 0.837242 14.1215 0.796251 14.2135C0.755259 14.3055 0.733217 14.4048 0.73144 14.5055C0.729663 14.6062 0.748188 14.7062 0.785909 14.7996C0.82363 14.893 0.879774 14.9778 0.950993 15.049C1.02221 15.1202 1.10705 15.1764 1.20043 15.2141C1.29382 15.2518 1.39385 15.2704 1.49455 15.2686C1.59526 15.2668 1.69457 15.2448 1.78657 15.2038C1.87857 15.1628 1.96137 15.1037 2.03003 15.03L5.53003 11.53Z" fill="#E6E6E6"/>
</svg>
