<svg width="112" height="117" viewBox="0 0 112 117" fill="none" xmlns="http://www.w3.org/2000/svg">
<g opacity="0.08">
<g filter="url(#filter0_f_403_2953)">
<path d="M57.6301 41.7212C58.3265 41.3712 59.1282 41.2925 59.8794 41.5005L60.8871 41.7794C69.495 44.1623 76.0266 51.3552 77.6952 60.1296C77.7398 60.3643 77.7455 60.6081 77.7107 60.8445C76.5403 68.8001 69.994 74.8709 61.9729 75.4392L60.654 75.5327C60.5433 75.5405 60.4322 75.5405 60.3215 75.5326L59.2219 75.4544C50.8794 74.8608 43.7949 69.1216 41.4829 61.084C41.3702 60.6922 41.3566 60.273 41.4409 59.8742C42.9243 52.8581 47.5411 46.7921 53.9485 43.5716L57.6301 41.7212Z" fill="#1715A6"/>
<path d="M57.6301 41.7212C58.3265 41.3712 59.1282 41.2925 59.8794 41.5005L60.8871 41.7794C69.495 44.1623 76.0266 51.3552 77.6952 60.1296C77.7398 60.3643 77.7455 60.6081 77.7107 60.8445C76.5403 68.8001 69.994 74.8709 61.9729 75.4392L60.654 75.5327C60.5433 75.5405 60.4322 75.5405 60.3215 75.5326L59.2219 75.4544C50.8794 74.8608 43.7949 69.1216 41.4829 61.084C41.3702 60.6922 41.3566 60.273 41.4409 59.8742C42.9243 52.8581 47.5411 46.7921 53.9485 43.5716L57.6301 41.7212Z" fill="url(#paint0_radial_403_2953)"/>
<path d="M57.6301 41.7212C58.3265 41.3712 59.1282 41.2925 59.8794 41.5005L60.8871 41.7794C69.495 44.1623 76.0266 51.3552 77.6952 60.1296C77.7398 60.3643 77.7455 60.6081 77.7107 60.8445C76.5403 68.8001 69.994 74.8709 61.9729 75.4392L60.654 75.5327C60.5433 75.5405 60.4322 75.5405 60.3215 75.5326L59.2219 75.4544C50.8794 74.8608 43.7949 69.1216 41.4829 61.084C41.3702 60.6922 41.3566 60.273 41.4409 59.8742C42.9243 52.8581 47.5411 46.7921 53.9485 43.5716L57.6301 41.7212Z" fill="url(#paint1_radial_403_2953)"/>
<path d="M57.6301 41.7212C58.3265 41.3712 59.1282 41.2925 59.8794 41.5005L60.8871 41.7794C69.495 44.1623 76.0266 51.3552 77.6952 60.1296C77.7398 60.3643 77.7455 60.6081 77.7107 60.8445C76.5403 68.8001 69.994 74.8709 61.9729 75.4392L60.654 75.5327C60.5433 75.5405 60.4322 75.5405 60.3215 75.5326L59.2219 75.4544C50.8794 74.8608 43.7949 69.1216 41.4829 61.084C41.3702 60.6922 41.3566 60.273 41.4409 59.8742C42.9243 52.8581 47.5411 46.7921 53.9485 43.5716L57.6301 41.7212Z" fill="url(#paint2_radial_403_2953)"/>
<path d="M57.6301 41.7212C58.3265 41.3712 59.1282 41.2925 59.8794 41.5005L60.8871 41.7794C69.495 44.1623 76.0266 51.3552 77.6952 60.1296C77.7398 60.3643 77.7455 60.6081 77.7107 60.8445C76.5403 68.8001 69.994 74.8709 61.9729 75.4392L60.654 75.5327C60.5433 75.5405 60.4322 75.5405 60.3215 75.5326L59.2219 75.4544C50.8794 74.8608 43.7949 69.1216 41.4829 61.084C41.3702 60.6922 41.3566 60.273 41.4409 59.8742C42.9243 52.8581 47.5411 46.7921 53.9485 43.5716L57.6301 41.7212Z" fill="url(#paint3_radial_403_2953)"/>
<path d="M57.6301 41.7212C58.3265 41.3712 59.1282 41.2925 59.8794 41.5005L60.8871 41.7794C69.495 44.1623 76.0266 51.3552 77.6952 60.1296C77.7398 60.3643 77.7455 60.6081 77.7107 60.8445C76.5403 68.8001 69.994 74.8709 61.9729 75.4392L60.654 75.5327C60.5433 75.5405 60.4322 75.5405 60.3215 75.5326L59.2219 75.4544C50.8794 74.8608 43.7949 69.1216 41.4829 61.084C41.3702 60.6922 41.3566 60.273 41.4409 59.8742C42.9243 52.8581 47.5411 46.7921 53.9485 43.5716L57.6301 41.7212Z" fill="url(#paint4_radial_403_2953)"/>
<path d="M57.6301 41.7212C58.3265 41.3712 59.1282 41.2925 59.8794 41.5005L60.8871 41.7794C69.495 44.1623 76.0266 51.3552 77.6952 60.1296C77.7398 60.3643 77.7455 60.6081 77.7107 60.8445C76.5403 68.8001 69.994 74.8709 61.9729 75.4392L60.654 75.5327C60.5433 75.5405 60.4322 75.5405 60.3215 75.5326L59.2219 75.4544C50.8794 74.8608 43.7949 69.1216 41.4829 61.084C41.3702 60.6922 41.3566 60.273 41.4409 59.8742C42.9243 52.8581 47.5411 46.7921 53.9485 43.5716L57.6301 41.7212Z" fill="url(#paint5_radial_403_2953)"/>
</g>
</g>
<g filter="url(#filter1_f_403_2953)">
<path d="M59.5517 43.8621C59.71 43.8478 59.8694 43.8479 60.0277 43.8627L61.618 44.0106C70.1041 44.8 77.0819 51.0341 78.8189 59.378C78.8986 59.7609 78.8845 60.1574 78.7779 60.5336L78.1075 62.8995C75.824 70.9584 68.7806 76.7553 60.433 77.4461C60.3003 77.4571 60.1657 77.4574 60.0329 77.4473C51.0769 76.7616 43.4162 70.488 41.0334 61.8276C40.941 61.4917 40.9197 61.1389 40.9717 60.7944C42.3402 51.7202 49.7299 44.7546 58.869 43.9242L59.5517 43.8621Z" fill="#5D5CF0" fill-opacity="0.3"/>
</g>
<g filter="url(#filter2_f_403_2953)">
<path d="M59.5733 38.9376C60.1635 38.7929 60.781 38.8022 61.3666 38.9644L62.8281 39.3694C71.5978 41.7996 78.433 48.679 80.8066 57.4642C80.9664 58.0557 80.9541 58.6804 80.771 59.2651L78.962 65.0429C76.405 73.2101 69.263 79.0944 60.7575 80.0417C60.5687 80.0628 60.3777 80.0638 60.1887 80.0448C50.7679 79.0982 42.78 72.6461 39.9002 63.6265L38.476 59.1657C38.3097 58.6451 38.2888 58.0889 38.4155 57.5571C40.5022 48.798 47.3136 41.9423 56.0591 39.7989L59.5733 38.9376Z" fill="black" fill-opacity="0.8"/>
</g>
<path d="M59.6361 40.6201H60.3806C71.0613 40.6201 79.7198 49.2786 79.7198 59.9593C79.7198 70.5976 71.0958 79.2215 60.4576 79.2215H59.6361H58.7845C48.1463 79.2215 39.5223 70.5976 39.5223 59.9593C39.5223 49.2786 48.1808 40.6201 58.8615 40.6201H59.6361Z" fill="#1715A6"/>
<path d="M59.6361 40.6201H60.3806C71.0613 40.6201 79.7198 49.2786 79.7198 59.9593C79.7198 70.5976 71.0958 79.2215 60.4576 79.2215H59.6361H58.7845C48.1463 79.2215 39.5223 70.5976 39.5223 59.9593C39.5223 49.2786 48.1808 40.6201 58.8615 40.6201H59.6361Z" fill="url(#paint6_linear_403_2953)"/>
<g filter="url(#filter3_f_403_2953)">
<path d="M59.6361 40.6201H60.3806C71.0613 40.6201 79.7198 49.2786 79.7198 59.9593C79.7198 70.5976 71.0958 79.2215 60.4576 79.2215H59.6361H58.7845C48.1463 79.2215 39.5223 70.5976 39.5223 59.9593C39.5223 49.2786 48.1808 40.6201 58.8615 40.6201H59.6361Z" fill="#1715A6"/>
<path d="M59.6361 40.6201H60.3806C71.0613 40.6201 79.7198 49.2786 79.7198 59.9593C79.7198 70.5976 71.0958 79.2215 60.4576 79.2215H59.6361H58.7845C48.1463 79.2215 39.5223 70.5976 39.5223 59.9593C39.5223 49.2786 48.1808 40.6201 58.8615 40.6201H59.6361Z" fill="url(#paint7_linear_403_2953)"/>
</g>
<g filter="url(#filter4_f_403_2953)">
<path d="M59.6361 40.6201H60.3806C71.0613 40.6201 79.7198 49.2786 79.7198 59.9593C79.7198 70.5976 71.0958 79.2215 60.4576 79.2215H59.6361H58.7845C48.1463 79.2215 39.5223 70.5976 39.5223 59.9593C39.5223 49.2786 48.1808 40.6201 58.8615 40.6201H59.6361Z" fill="#1715A6"/>
<path d="M59.6361 40.6201H60.3806C71.0613 40.6201 79.7198 49.2786 79.7198 59.9593C79.7198 70.5976 71.0958 79.2215 60.4576 79.2215H59.6361H58.7845C48.1463 79.2215 39.5223 70.5976 39.5223 59.9593C39.5223 49.2786 48.1808 40.6201 58.8615 40.6201H59.6361Z" fill="url(#paint8_linear_403_2953)"/>
</g>
<mask id="mask0_403_2953" style="mask-type:alpha" maskUnits="userSpaceOnUse" x="39" y="40" width="41" height="40">
<path d="M59.6361 40.6201H60.3806C71.0613 40.6201 79.7198 49.2786 79.7198 59.9593C79.7198 70.5976 71.0958 79.2215 60.4576 79.2215H59.6361H58.7845C48.1463 79.2215 39.5223 70.5976 39.5223 59.9593C39.5223 49.2786 48.1808 40.6201 58.8615 40.6201H59.6361Z" fill="#1715A6"/>
<path d="M59.6361 40.6201H60.3806C71.0613 40.6201 79.7198 49.2786 79.7198 59.9593C79.7198 70.5976 71.0958 79.2215 60.4576 79.2215H59.6361H58.7845C48.1463 79.2215 39.5223 70.5976 39.5223 59.9593C39.5223 49.2786 48.1808 40.6201 58.8615 40.6201H59.6361Z" fill="url(#paint9_linear_403_2953)"/>
</mask>
<g mask="url(#mask0_403_2953)">
<g filter="url(#filter5_f_403_2953)">
<path d="M61.2392 44.5184C61.4429 44.5184 61.6459 44.5406 61.8447 44.5846C69.0506 46.1796 75.0098 51.2192 77.7791 58.0603L78.0305 58.6813C78.2074 59.1183 78.2558 59.5968 78.17 60.0604L78.0378 60.7746C76.3773 69.7475 68.5511 76.2582 59.4259 76.2582C49.9002 75.1253 41.7462 68.8973 38.1468 60.0053L37.7172 58.944C37.3414 58.0155 37.4356 56.9629 37.9704 56.116C42.5298 48.896 50.4726 44.518 59.0117 44.5183L61.2392 44.5184Z" fill="url(#paint10_linear_403_2953)"/>
</g>
<g filter="url(#filter6_f_403_2953)">
<path d="M59.5809 45.6535C59.7775 45.5797 59.9859 45.5418 60.1959 45.5418C67.2082 45.5418 73.1359 50.7358 74.0571 57.6874L75.4251 68.0111C75.5798 69.1784 75.0598 70.3325 74.0829 70.99C69.9904 73.7443 65.1695 75.2156 60.2365 75.2156H56.0099C55.7327 75.2156 55.4575 75.1675 55.1967 75.0736C48.864 72.793 44.1878 67.3631 42.8717 60.7622L42.5164 58.9802C42.358 58.1855 42.5513 57.3611 43.0465 56.7197L43.2772 56.4208C46.576 52.1482 50.9998 48.879 56.0525 46.9798L59.5809 45.6535Z" fill="url(#paint11_linear_403_2953)"/>
</g>
<g filter="url(#filter7_f_403_2953)">
<path d="M58.9615 77.2823C51.3293 74.8221 45.9752 74.3436 43.9648 68.6714L58.4259 72.6332L75.2301 63.5755C75.2301 63.5755 79.314 79.0396 58.9615 77.2823Z" fill="#D9D9D9" fill-opacity="0.5"/>
</g>
<g filter="url(#filter8_f_403_2953)">
<path d="M60.5744 76.7586C46.9593 77.4406 44.5996 72.1568 40.8329 63.4023L54.0253 54.9932L59.9618 68.1017L65.6628 53.8798L77.6773 65.01C77.6773 65.01 72.9187 76.1402 60.5744 76.7586Z" fill="#D9D9D9" fill-opacity="0.3"/>
</g>
</g>
<path fill-rule="evenodd" clip-rule="evenodd" d="M51.5512 65.0487L52.607 60.1263L51.5512 55.2039C51.4249 54.6164 51.4656 54.0052 51.6687 53.4397C51.8719 52.8742 52.2295 52.3769 52.7008 52.0041C53.1722 51.6314 53.7386 51.3982 54.3357 51.3309C54.9329 51.2636 55.5369 51.3649 56.0794 51.6234L67.9913 57.2879C68.5278 57.5433 68.981 57.9454 69.2984 58.4478C69.6157 58.9502 69.7842 59.5322 69.7843 60.1265C69.7844 60.7207 69.6161 61.3028 69.2989 61.8053C68.9817 62.3078 68.5287 62.7101 67.9922 62.9656L56.0785 68.6283C55.5361 68.8864 54.9323 68.9874 54.3354 68.9201C53.7385 68.8527 53.1724 68.6195 52.7012 68.2469C52.2301 67.8744 51.8726 67.3774 51.6694 66.8121C51.4661 66.2469 51.4252 65.636 51.5512 65.0487ZM55.2151 66.8115L67.126 61.1498C67.3202 61.0584 67.4844 60.9137 67.5995 60.7324C67.7145 60.5512 67.7756 60.3409 67.7756 60.1263C67.7756 59.9116 67.7145 59.7014 67.5995 59.5202C67.4844 59.3389 67.3202 59.1942 67.126 59.1028L55.217 53.4411C55.0137 53.3438 54.7872 53.3055 54.5633 53.3304C54.3393 53.3553 54.1267 53.4424 53.9498 53.5819C53.7728 53.7214 53.6384 53.9077 53.5619 54.1196C53.4853 54.3316 53.4697 54.5608 53.5168 54.7812L54.4465 59.1208L60.6626 59.1198C60.796 59.1176 60.9286 59.1419 61.0526 59.1914C61.1765 59.241 61.2893 59.3147 61.3845 59.4083C61.4796 59.5019 61.5552 59.6135 61.6068 59.7366C61.6583 59.8597 61.6848 59.9919 61.6848 60.1254C61.6847 60.2588 61.6581 60.391 61.6064 60.514C61.5547 60.6371 61.4791 60.7486 61.3838 60.8421C61.2886 60.9357 61.1757 61.0093 61.0517 61.0587C60.9277 61.1081 60.7951 61.1323 60.6616 61.1299L54.4456 61.1309L53.5168 65.4695C53.4695 65.6898 53.4849 65.9189 53.5612 66.1309C53.6375 66.3429 53.7716 66.5293 53.9484 66.669C54.1251 66.8087 54.3375 66.8961 54.5614 66.9212C54.7853 66.9464 55.0117 66.9084 55.2151 66.8115Z" fill="white" fill-opacity="0.9"/>
<path d="M67.9637 57.3465C68.489 57.5966 68.9325 57.9905 69.2432 58.4824C69.554 58.9745 69.7189 59.5446 69.719 60.1266C69.7191 60.7085 69.5552 61.2786 69.2446 61.7707C68.934 62.2629 68.4898 62.6571 67.9644 62.9073L56.0513 68.5697C55.5198 68.8226 54.9277 68.9216 54.3429 68.8556C53.758 68.7896 53.2032 68.5612 52.7415 68.1961C52.2799 67.8311 51.9298 67.344 51.7306 66.7902C51.5314 66.2364 51.4911 65.6379 51.6146 65.0625L52.6704 60.1397L52.6732 60.1259L52.6697 60.1128L51.6146 55.1906C51.4907 54.615 51.5301 54.0157 51.7292 53.4615C51.9283 52.9074 52.279 52.4201 52.7408 52.0549C53.2027 51.6897 53.7578 51.4607 54.3429 51.3948C54.9279 51.3288 55.5197 51.4288 56.0513 51.682L67.9637 57.3465ZM67.6543 59.4858C67.5327 59.2942 67.3589 59.1411 67.1537 59.0445L55.2447 53.3821C55.0306 53.2798 54.7914 53.2399 54.5556 53.2661C54.3199 53.2924 54.0962 53.3839 53.9099 53.5306C53.7234 53.6776 53.5817 53.8749 53.5011 54.0982C53.4206 54.3214 53.4039 54.5629 53.4535 54.795L54.3829 59.1343L54.394 59.1854H54.4465L60.6626 59.184L60.6633 59.1847C60.7882 59.1826 60.9127 59.2053 61.0286 59.2517C61.1445 59.298 61.2504 59.3671 61.3394 59.4547C61.4283 59.5422 61.499 59.6469 61.5472 59.762C61.5953 59.877 61.6205 60.0005 61.6204 60.1252C61.6204 60.2501 61.5949 60.374 61.5465 60.4891C61.5103 60.5753 61.4619 60.6558 61.4022 60.7273L61.3387 60.7964C61.2496 60.8838 61.1432 60.9525 61.0272 60.9987C60.9114 61.0448 60.7873 61.0672 60.6626 61.065H60.6613L54.4458 61.0657H54.3933L54.3822 61.1168L53.4535 65.4554C53.4037 65.6875 53.4201 65.9295 53.5004 66.1529C53.5808 66.3762 53.7223 66.5726 53.9085 66.7198C54.0947 66.8669 54.3184 66.9591 54.5542 66.9856C54.7899 67.0122 55.0285 66.9723 55.2426 66.8703L67.1537 61.2086C67.359 61.112 67.5327 60.9589 67.6543 60.7674C67.7759 60.5758 67.8401 60.3528 67.8401 60.1259C67.84 59.8992 67.7757 59.6772 67.6543 59.4858Z" stroke="url(#paint12_linear_403_2953)" stroke-opacity="0.8" stroke-width="0.129402"/>
<defs>
<filter id="filter0_f_403_2953" x="-3.43323e-05" y="-3.8147e-06" width="119.12" height="116.925" filterUnits="userSpaceOnUse" color-interpolation-filters="sRGB">
<feFlood flood-opacity="0" result="BackgroundImageFix"/>
<feBlend mode="normal" in="SourceGraphic" in2="BackgroundImageFix" result="shape"/>
<feGaussianBlur stdDeviation="20.6933" result="effect1_foregroundBlur_403_2953"/>
</filter>
<filter id="filter1_f_403_2953" x="2.144" y="5.05158" width="115.526" height="111.203" filterUnits="userSpaceOnUse" color-interpolation-filters="sRGB">
<feFlood flood-opacity="0" result="BackgroundImageFix"/>
<feBlend mode="normal" in="SourceGraphic" in2="BackgroundImageFix" result="shape"/>
<feGaussianBlur stdDeviation="19.4" result="effect1_foregroundBlur_403_2953"/>
</filter>
<filter id="filter2_f_403_2953" x="28.9044" y="29.4062" width="61.4429" height="60.0814" filterUnits="userSpaceOnUse" color-interpolation-filters="sRGB">
<feFlood flood-opacity="0" result="BackgroundImageFix"/>
<feBlend mode="normal" in="SourceGraphic" in2="BackgroundImageFix" result="shape"/>
<feGaussianBlur stdDeviation="4.71466" result="effect1_foregroundBlur_403_2953"/>
</filter>
<filter id="filter3_f_403_2953" x="36.7636" y="37.8614" width="45.7149" height="44.1188" filterUnits="userSpaceOnUse" color-interpolation-filters="sRGB">
<feFlood flood-opacity="0" result="BackgroundImageFix"/>
<feBlend mode="normal" in="SourceGraphic" in2="BackgroundImageFix" result="shape"/>
<feGaussianBlur stdDeviation="1.37934" result="effect1_foregroundBlur_403_2953"/>
</filter>
<filter id="filter4_f_403_2953" x="36.7636" y="37.8614" width="45.7149" height="44.1188" filterUnits="userSpaceOnUse" color-interpolation-filters="sRGB">
<feFlood flood-opacity="0" result="BackgroundImageFix"/>
<feBlend mode="normal" in="SourceGraphic" in2="BackgroundImageFix" result="shape"/>
<feGaussianBlur stdDeviation="1.37934" result="effect1_foregroundBlur_403_2953"/>
</filter>
<filter id="filter5_f_403_2953" x="24.9175" y="31.9459" width="65.8663" height="56.8847" filterUnits="userSpaceOnUse" color-interpolation-filters="sRGB">
<feFlood flood-opacity="0" result="BackgroundImageFix"/>
<feBlend mode="normal" in="SourceGraphic" in2="BackgroundImageFix" result="shape"/>
<feGaussianBlur stdDeviation="6.28621" result="effect1_foregroundBlur_403_2953"/>
</filter>
<filter id="filter6_f_403_2953" x="32.1156" y="35.1952" width="53.6831" height="50.3671" filterUnits="userSpaceOnUse" color-interpolation-filters="sRGB">
<feFlood flood-opacity="0" result="BackgroundImageFix"/>
<feBlend mode="normal" in="SourceGraphic" in2="BackgroundImageFix" result="shape"/>
<feGaussianBlur stdDeviation="5.17332" result="effect1_foregroundBlur_403_2953"/>
</filter>
<filter id="filter7_f_403_2953" x="36.2049" y="55.8155" width="47.1201" height="29.366" filterUnits="userSpaceOnUse" color-interpolation-filters="sRGB">
<feFlood flood-opacity="0" result="BackgroundImageFix"/>
<feBlend mode="normal" in="SourceGraphic" in2="BackgroundImageFix" result="shape"/>
<feGaussianBlur stdDeviation="3.87999" result="effect1_foregroundBlur_403_2953"/>
</filter>
<filter id="filter8_f_403_2953" x="33.0729" y="46.1198" width="52.3644" height="38.4577" filterUnits="userSpaceOnUse" color-interpolation-filters="sRGB">
<feFlood flood-opacity="0" result="BackgroundImageFix"/>
<feBlend mode="normal" in="SourceGraphic" in2="BackgroundImageFix" result="shape"/>
<feGaussianBlur stdDeviation="3.87999" result="effect1_foregroundBlur_403_2953"/>
</filter>
<radialGradient id="paint0_radial_403_2953" cx="0" cy="0" r="1" gradientTransform="matrix(-7.2871 41.8977 -15.9622 -19.1272 58.3053 24.3066)" gradientUnits="userSpaceOnUse">
<stop stop-color="#522392"/>
<stop offset="1" stop-color="#522392" stop-opacity="0"/>
</radialGradient>
<radialGradient id="paint1_radial_403_2953" cx="0" cy="0" r="1" gradientTransform="matrix(2.10942 27.3765 -10.4299 5.53681 47.4364 54.8512)" gradientUnits="userSpaceOnUse">
<stop stop-color="#3F40DC"/>
<stop offset="1" stop-color="#3F40DC" stop-opacity="0"/>
</radialGradient>
<radialGradient id="paint2_radial_403_2953" cx="0" cy="0" r="1" gradientTransform="matrix(0.703141 21.2245 -8.08611 1.84561 51.8897 77.3061)" gradientUnits="userSpaceOnUse">
<stop stop-color="#7D90FF"/>
<stop offset="1" stop-color="#7D90FF" stop-opacity="0"/>
</radialGradient>
<radialGradient id="paint3_radial_403_2953" cx="0" cy="0" r="1" gradientTransform="matrix(-8.33949 25.7917 -9.82615 -21.8895 58.8039 82.5353)" gradientUnits="userSpaceOnUse">
<stop stop-color="white"/>
<stop offset="1" stop-color="white" stop-opacity="0"/>
</radialGradient>
<radialGradient id="paint4_radial_403_2953" cx="0" cy="0" r="1" gradientTransform="matrix(-2.57818 38.1425 -14.5316 -6.76721 60.5617 88.9949)" gradientUnits="userSpaceOnUse">
<stop stop-color="#7C5D45"/>
<stop offset="1" stop-color="#7C5D45" stop-opacity="0"/>
</radialGradient>
<radialGradient id="paint5_radial_403_2953" cx="0" cy="0" r="1" gradientTransform="matrix(9.24606 17.4842 -6.66114 24.2691 64.6814 73.451)" gradientUnits="userSpaceOnUse">
<stop stop-color="white"/>
<stop offset="1" stop-color="white" stop-opacity="0"/>
</radialGradient>
<linearGradient id="paint6_linear_403_2953" x1="59.6361" y1="100.092" x2="53.1932" y2="14.6497" gradientUnits="userSpaceOnUse">
<stop stop-color="#FF432B" stop-opacity="0"/>
<stop offset="1" stop-color="#FF432B"/>
</linearGradient>
<linearGradient id="paint7_linear_403_2953" x1="59.6361" y1="100.092" x2="53.1932" y2="14.6497" gradientUnits="userSpaceOnUse">
<stop stop-color="#FF432B" stop-opacity="0"/>
<stop offset="1" stop-color="#FF432B"/>
</linearGradient>
<linearGradient id="paint8_linear_403_2953" x1="59.6361" y1="100.092" x2="53.1932" y2="14.6497" gradientUnits="userSpaceOnUse">
<stop stop-color="#FF432B" stop-opacity="0"/>
<stop offset="1" stop-color="#FF432B"/>
</linearGradient>
<linearGradient id="paint9_linear_403_2953" x1="59.6361" y1="100.092" x2="53.1932" y2="14.6497" gradientUnits="userSpaceOnUse">
<stop stop-color="#FF432B" stop-opacity="0"/>
<stop offset="1" stop-color="#FF432B"/>
</linearGradient>
<linearGradient id="paint10_linear_403_2953" x1="59.3158" y1="11.528" x2="59.3158" y2="107.172" gradientUnits="userSpaceOnUse">
<stop stop-color="#3D103D"/>
<stop offset="0.471154" stop-color="#322DCA"/>
<stop offset="1" stop-color="#AFBFFF"/>
</linearGradient>
<linearGradient id="paint11_linear_403_2953" x1="59.8782" y1="27.5241" x2="59.8782" y2="92.3536" gradientUnits="userSpaceOnUse">
<stop stop-color="#3D103D"/>
<stop offset="0.471154" stop-color="#322DCA"/>
<stop offset="1" stop-color="#AFBFFF"/>
</linearGradient>
<linearGradient id="paint12_linear_403_2953" x1="56.94" y1="51.5592" x2="61.1712" y2="70.3274" gradientUnits="userSpaceOnUse">
<stop stop-color="white"/>
<stop offset="1" stop-color="white" stop-opacity="0"/>
</linearGradient>
</defs>
</svg>
