<svg width="15" height="14" viewBox="0 0 15 14" fill="none" xmlns="http://www.w3.org/2000/svg">
<path fill-rule="evenodd" clip-rule="evenodd" d="M8.422 8.84025C8.47333 9.12358 8.49933 9.42225 8.5 9.73625C8.5 11.6433 7.113 13.3963 4.71 13.6303C3.91628 13.7091 3.11544 13.5881 2.38045 13.2783C1.64546 12.9684 0.999697 12.4796 0.502 11.8563C0.421219 11.7524 0.350878 11.6409 0.292 11.5233C0.061 11.0623 0 10.5233 0 9.99525C0.312 10.0423 0.599 10.0403 0.852 9.99525C1.487 9.88325 1.913 9.50825 2 8.99525C2.23 7.63525 3.072 5.99825 5.26 5.99825C5.40933 5.99825 5.55433 6.00758 5.695 6.02625L9.112 1.24225C9.36296 0.891492 9.68727 0.599577 10.0624 0.386787C10.4376 0.173996 10.8545 0.0454327 11.2844 0.0100279C11.7142 -0.025377 12.1466 0.033226 12.5515 0.181765C12.9564 0.330305 13.3241 0.565218 13.6291 0.870186C13.934 1.17515 14.1689 1.54286 14.3175 1.94777C14.466 2.35267 14.5246 2.78506 14.4892 3.21489C14.4538 3.64473 14.3253 4.0617 14.1125 4.43684C13.8997 4.81198 13.6078 5.13629 13.257 5.38725L8.422 8.84025ZM7.862 7.39625L10.681 5.38325C10.5454 5.02654 10.3357 4.70262 10.0658 4.43286C9.79585 4.1631 9.4718 3.95363 9.115 3.81825L7.126 6.60325C7.41267 6.81925 7.65733 7.08358 7.862 7.39625ZM11.929 4.49225L12.386 4.16625C12.5598 4.04208 12.7046 3.88153 12.8101 3.69577C12.9156 3.51 12.9794 3.30349 12.997 3.09058C13.0146 2.87767 12.9857 2.66347 12.9121 2.46289C12.8386 2.26231 12.7222 2.08015 12.5712 1.92909C12.4201 1.77802 12.2379 1.66167 12.0374 1.58814C11.8368 1.5146 11.6226 1.48563 11.4097 1.50325C11.1968 1.52088 10.9902 1.58466 10.8045 1.69018C10.6187 1.79569 10.4582 1.9404 10.334 2.11425L10.008 2.57125C10.8435 2.98109 11.5192 3.65679 11.929 4.49225ZM3.48 9.24525C3.566 8.73825 3.752 8.28325 4.02 7.98125C4.245 7.72725 4.592 7.49825 5.262 7.49825C5.779 7.49825 6.175 7.69525 6.46 8.02125C6.757 8.36125 7.001 8.92725 7.001 9.73625C7.001 10.8573 6.215 11.9763 4.566 12.1363C4.0869 12.1837 3.60323 12.1258 3.14889 11.9665C2.69456 11.8072 2.28058 11.5505 1.936 11.2143C2.696 10.8773 3.31 10.2493 3.48 9.24525Z" fill="white"/>
</svg>
