<svg width="11" height="7" viewBox="0 0 11 7" fill="none" xmlns="http://www.w3.org/2000/svg">
<path fill-rule="evenodd" clip-rule="evenodd" d="M0.21934 0.238708C0.359965 0.0982575 0.550589 0.0193681 0.74934 0.0193681C0.948091 0.0193681 1.13871 0.0982575 1.27934 0.238708L5.24934 4.20871L9.21934 0.238708C9.288 0.165021 9.3708 0.105919 9.4628 0.064927C9.5548 0.023935 9.65411 0.00189351 9.75482 0.000116722C9.85552 -0.00166006 9.95555 0.0168643 10.0489 0.0545854C10.1423 0.0923064 10.2272 0.148451 10.2984 0.21967C10.3696 0.290888 10.4257 0.375722 10.4635 0.46911C10.5012 0.562499 10.5197 0.662528 10.5179 0.763231C10.5162 0.863934 10.4941 0.963247 10.4531 1.05525C10.4121 1.14725 10.353 1.23005 10.2793 1.29871L5.77934 5.79871C5.63871 5.93916 5.44809 6.01805 5.24934 6.01805C5.05059 6.01805 4.85997 5.93916 4.71934 5.79871L0.21934 1.29871C0.0788896 1.15808 0 0.967459 0 0.768708C0 0.569957 0.0788896 0.379333 0.21934 0.238708Z" fill="#E6E6E6"/>
</svg>
